<?xml version="1.0" encoding="UTF-8"?>
<svg xmlns="http://www.w3.org/2000/svg" xmlns:xlink="http://www.w3.org/1999/xlink"
     width="400" height="400" viewBox="0 -400 400 400">
<defs>
</defs>
<rect x="0.0" y="-80.0" width="80.0" height="80.0" fill="#ffffffff" stroke-width="0" stroke="black" />
<circle cx="40.0" cy="-40.0" r="40.0" fill="#ff0000ff" stroke-width="1" stroke="black" />
<rect x="0.0" y="-160.0" width="80.0" height="80.0" fill="#333333ff" stroke-width="1" stroke="black" />
<rect x="0.0" y="-240.0" width="80.0" height="80.0" fill="#333333ff" stroke-width="1" stroke="black" />
<rect x="0.0" y="-320.0" width="80.0" height="80.0" fill="#ffffffff" stroke-width="0" stroke="black" />
<rect x="0.0" y="-400.0" width="80.0" height="80.0" fill="#333333ff" stroke-width="1" stroke="black" />
<rect x="80.0" y="-80.0" width="80.0" height="80.0" fill="#ffffffff" stroke-width="0" stroke="black" />
<rect x="80.0" y="-160.0" width="80.0" height="80.0" fill="#ffffffff" stroke-width="0" stroke="black" />
<rect x="80.0" y="-240.0" width="80.0" height="80.0" fill="#ffffffff" stroke-width="0" stroke="black" />
<rect x="80.0" y="-320.0" width="80.0" height="80.0" fill="#ffffffff" stroke-width="0" stroke="black" />
<rect x="80.0" y="-400.0" width="80.0" height="80.0" fill="#ffffffff" stroke-width="0" stroke="black" />
<rect x="160.0" y="-80.0" width="80.0" height="80.0" fill="#333333ff" stroke-width="1" stroke="black" />
<rect x="160.0" y="-160.0" width="80.0" height="80.0" fill="#ffffffff" stroke-width="0" stroke="black" />
<rect x="160.0" y="-240.0" width="80.0" height="80.0" fill="#333333ff" stroke-width="1" stroke="black" />
<rect x="160.0" y="-320.0" width="80.0" height="80.0" fill="#333333ff" stroke-width="1" stroke="black" />
<rect x="160.0" y="-400.0" width="80.0" height="80.0" fill="#333333ff" stroke-width="1" stroke="black" />
<rect x="240.0" y="-80.0" width="80.0" height="80.0" fill="#333333ff" stroke-width="1" stroke="black" />
<rect x="240.0" y="-160.0" width="80.0" height="80.0" fill="#ffffffff" stroke-width="0" stroke="black" />
<rect x="240.0" y="-240.0" width="80.0" height="80.0" fill="#ffffffff" stroke-width="0" stroke="black" />
<rect x="240.0" y="-320.0" width="80.0" height="80.0" fill="#ffffffff" stroke-width="0" stroke="black" />
<rect x="240.0" y="-400.0" width="80.0" height="80.0" fill="#333333ff" stroke-width="1" stroke="black" />
<rect x="320.0" y="-80.0" width="80.0" height="80.0" fill="#333333ff" stroke-width="1" stroke="black" />
<rect x="320.0" y="-160.0" width="80.0" height="80.0" fill="#ffffffff" stroke-width="0" stroke="black" />
<rect x="320.0" y="-240.0" width="80.0" height="80.0" fill="#333333ff" stroke-width="1" stroke="black" />
<rect x="320.0" y="-320.0" width="80.0" height="80.0" fill="#333333ff" stroke-width="1" stroke="black" />
<rect x="320.0" y="-400.0" width="80.0" height="80.0" fill="#333333ff" stroke-width="1" stroke="black" />
</svg>