<?xml version="1.0" encoding="UTF-8"?>
<svg xmlns="http://www.w3.org/2000/svg" xmlns:xlink="http://www.w3.org/1999/xlink"
     width="400" height="400" viewBox="0 -400 400 400">
<defs>
</defs>
<path d="M216.66236618020088,-220.18520837503848 L290.40411899903853,-345.38100110084844" stroke-width="1" stroke="#B6B6B6ff" />
<path d="M216.66236618020088,-220.18520837503848 L74.1449737859273,-63.72114764878138" stroke-width="1" stroke="#424242ff" />
<path d="M216.66236618020088,-220.18520837503848 L363.6613468986959,-174.41596609129385" stroke-width="1" stroke="#C7C7C7ff" />
<path d="M216.66236618020088,-220.18520837503848 L258.2603679283113,-356.15626402771505" stroke-width="1" stroke="#696969ff" />
<path d="M216.66236618020088,-220.18520837503848 L14.243711505807877,-235.21665920550325" stroke-width="1" stroke="#CBCBCBff" />
<path d="M216.66236618020088,-220.18520837503848 L206.34173281150314,-249.089818450554" stroke-width="1" stroke="#6E6E6Eff" />
<path d="M216.66236618020088,-220.18520837503848 L34.56467705527979,-109.03513271762625" stroke-width="1" stroke="#888888ff" />
<path d="M216.66236618020088,-220.18520837503848 L266.1227561681661,-136.91880959534822" stroke-width="1" stroke="#888888ff" />
<path d="M216.66236618020088,-220.18520837503848 L114.4105174236926,-235.4839328050793" stroke-width="1" stroke="#5E5E5Eff" />
<path d="M12.40404116558036,-369.31440693494613 L12.40404116558036,-369.31440693494613" stroke-width="1" stroke="#383838ff" />
<path d="M12.40404116558036,-369.31440693494613 L103.52090555319452,-201.26048812421126" stroke-width="1" stroke="#979797ff" />
<path d="M12.40404116558036,-369.31440693494613 L34.56467705527979,-109.03513271762625" stroke-width="1" stroke="#797979ff" />
<path d="M12.40404116558036,-369.31440693494613 L133.93875853036366,-371.0343986974995" stroke-width="1" stroke="#858585ff" />
<path d="M12.40404116558036,-369.31440693494613 L108.03292024059346,-63.57940911018019" stroke-width="1" stroke="#505050ff" />
<path d="M12.40404116558036,-369.31440693494613 L62.73613409148262,-358.4851928761703" stroke-width="1" stroke="#EBEBEBff" />
<path d="M12.40404116558036,-369.31440693494613 L27.468594509583212,-272.9344717436426" stroke-width="1" stroke="#0C0C0Cff" />
<path d="M12.40404116558036,-369.31440693494613 L372.09966848077295,-185.22034290950532" stroke-width="1" stroke="#3F3F3Fff" />
<path d="M12.40404116558036,-369.31440693494613 L110.26675545283355,-161.30103376563505" stroke-width="1" stroke="#737373ff" />
<path d="M12.40404116558036,-369.31440693494613 L46.859879619762346,-148.01907037843054" stroke-width="1" stroke="#5D5D5Dff" />
<path d="M12.40404116558036,-369.31440693494613 L311.23367679806057,-275.09435060629255" stroke-width="1" stroke="#434343ff" />
<path d="M12.40404116558036,-369.31440693494613 L23.67728008159764,-223.07527223713478" stroke-width="1" stroke="#F7F7F7ff" />
<path d="M12.40404116558036,-369.31440693494613 L394.0559949307701,-359.5438632089431" stroke-width="1" stroke="#D3D3D3ff" />
<path d="M103.52090555319452,-201.26048812421126 L379.1696330728284,-47.347314426043226" stroke-width="1" stroke="#212121ff" />
<path d="M103.52090555319452,-201.26048812421126 L272.53334795303317,-91.84137840115598" stroke-width="1" stroke="#C3C3C3ff" />
<path d="M103.52090555319452,-201.26048812421126 L233.80005106800783,-366.3212626263572" stroke-width="1" stroke="#FDFDFDff" />
<path d="M103.52090555319452,-201.26048812421126 L311.23367679806057,-275.09435060629255" stroke-width="1" stroke="#686868ff" />
<path d="M103.52090555319452,-201.26048812421126 L247.26081284563355,-315.3366074646819" stroke-width="1" stroke="#C3C3C3ff" />
<path d="M103.52090555319452,-201.26048812421126 L9.485523618060743,-105.61877720351998" stroke-width="1" stroke="#6B6B6Bff" />
<path d="M103.52090555319452,-201.26048812421126 L282.3030238143128,-214.05536306735843" stroke-width="1" stroke="#E9E9E9ff" />
<path d="M103.52090555319452,-201.26048812421126 L73.54787478676302,-149.60907675061955" stroke-width="1" stroke="#DFDFDFff" />
<path d="M103.52090555319452,-201.26048812421126 L353.4217575252891,-116.55277718636583" stroke-width="1" stroke="#838383ff" />
<path d="M103.52090555319452,-201.26048812421126 L118.4528440623601,-183.71492374198542" stroke-width="1" stroke="#FBFBFBff" />
<path d="M103.52090555319452,-201.26048812421126 L257.7041697632521,-153.39505243862544" stroke-width="1" stroke="#BCBCBCff" />
<path d="M103.52090555319452,-201.26048812421126 L159.70011050148466,-213.5469520659658" stroke-width="1" stroke="#A9A9A9ff" />
<path d="M103.52090555319452,-201.26048812421126 L340.8120865769337,-221.74761539575877" stroke-width="1" stroke="#F3F3F3ff" />
<path d="M350.419656453146,-362.5412882159557 L263.9279522852129,-340.3327168916504" stroke-width="1" stroke="#888888ff" />
<path d="M350.419656453146,-362.5412882159557 L379.2705148344458,-34.3763895248355" stroke-width="1" stroke="#D1D1D1ff" />
<path d="M350.419656453146,-362.5412882159557 L123.70282050790462,-80.31846784729595" stroke-width="1" stroke="#ECECECff" />
<path d="M350.419656453146,-362.5412882159557 L65.56089395733942,-100.42845614289311" stroke-width="1" stroke="#CBCBCBff" />
<path d="M350.419656453146,-362.5412882159557 L353.4217575252891,-116.55277718636583" stroke-width="1" stroke="#B1B1B1ff" />
<path d="M350.419656453146,-362.5412882159557 L108.03292024059346,-63.57940911018019" stroke-width="1" stroke="#BBBBBBff" />
<path d="M350.419656453146,-362.5412882159557 L92.23160939087296,-376.6795166589423" stroke-width="1" stroke="#D5D5D5ff" />
<path d="M350.419656453146,-362.5412882159557 L234.6117223463767,-197.718636842857" stroke-width="1" stroke="#F0F0F0ff" />
<path d="M350.419656453146,-362.5412882159557 L20.914389325736327,-79.51741612641695" stroke-width="1" stroke="#717171ff" />
<path d="M350.419656453146,-362.5412882159557 L379.1696330728284,-47.347314426043226" stroke-width="1" stroke="#FEFEFEff" />
<path d="M350.419656453146,-362.5412882159557 L284.2068754976384,-40.32633733752413" stroke-width="1" stroke="#313131ff" />
<path d="M350.419656453146,-362.5412882159557 L27.63691245426676,-256.69349078153346" stroke-width="1" stroke="#464646ff" />
<path d="M350.419656453146,-362.5412882159557 L248.22049228541775,-0.8934617093670383" stroke-width="1" stroke="#ADADADff" />
<path d="M350.419656453146,-362.5412882159557 L62.73613409148262,-358.4851928761703" stroke-width="1" stroke="#F0F0F0ff" />
<path d="M350.419656453146,-362.5412882159557 L363.6613468986959,-174.41596609129385" stroke-width="1" stroke="#F2F2F2ff" />
<path d="M350.419656453146,-362.5412882159557 L27.468594509583212,-272.9344717436426" stroke-width="1" stroke="#AEAEAEff" />
<path d="M379.1696330728284,-47.347314426043226 L206.34173281150314,-249.089818450554" stroke-width="1" stroke="#ECECECff" />
<path d="M379.1696330728284,-47.347314426043226 L135.04373658688164,-130.39846521508545" stroke-width="1" stroke="#939393ff" />
<path d="M379.1696330728284,-47.347314426043226 L379.52406153569285,-110.4887063223452" stroke-width="1" stroke="#C1C1C1ff" />
<path d="M379.1696330728284,-47.347314426043226 L266.1227561681661,-136.91880959534822" stroke-width="1" stroke="#7B7B7Bff" />
<path d="M379.1696330728284,-47.347314426043226 L116.609030539423,-300.8116937270986" stroke-width="1" stroke="#1C1C1Cff" />
<path d="M379.1696330728284,-47.347314426043226 L159.70011050148466,-213.5469520659658" stroke-width="1" stroke="#D6D6D6ff" />
<path d="M379.1696330728284,-47.347314426043226 L73.54787478676302,-149.60907675061955" stroke-width="1" stroke="#4E4E4Eff" />
<path d="M379.1696330728284,-47.347314426043226 L370.1651422513167,-286.0575442633461" stroke-width="1" stroke="#F6F6F6ff" />
<path d="M379.1696330728284,-47.347314426043226 L338.2164431084821,-330.2990003319727" stroke-width="1" stroke="#7C7C7Cff" />
<path d="M379.1696330728284,-47.347314426043226 L194.9172906021055,-260.0728521001391" stroke-width="1" stroke="#424242ff" />
<path d="M379.1696330728284,-47.347314426043226 L140.07822293719352,-4.421166557489986" stroke-width="1" stroke="#B7B7B7ff" />
<path d="M284.2068754976384,-40.32633733752413 L206.34173281150314,-249.089818450554" stroke-width="1" stroke="#737373ff" />
<path d="M284.2068754976384,-40.32633733752413 L80.82984608048478,-60.93454047819957" stroke-width="1" stroke="#575757ff" />
<path d="M284.2068754976384,-40.32633733752413 L66.98588484917462,-38.444234184229444" stroke-width="1" stroke="#2C2C2Cff" />
<path d="M284.2068754976384,-40.32633733752413 L353.4217575252891,-116.55277718636583" stroke-width="1" stroke="#050505ff" />
<path d="M284.2068754976384,-40.32633733752413 L282.3030238143128,-214.05536306735843" stroke-width="1" stroke="#ACACACff" />
<path d="M284.2068754976384,-40.32633733752413 L109.39449585862424,-393.48873563523114" stroke-width="1" stroke="#838383ff" />
<path d="M284.2068754976384,-40.32633733752413 L311.23367679806057,-275.09435060629255" stroke-width="1" stroke="#696969ff" />
<path d="M372.49330459251166,-186.25654370322758 L316.3772382859166,-193.65088749060448" stroke-width="1" stroke="#EAEAEAff" />
<path d="M372.49330459251166,-186.25654370322758 L70.42425474716856,-253.89638381138195" stroke-width="1" stroke="#606060ff" />
<path d="M372.49330459251166,-186.25654370322758 L133.93875853036366,-371.0343986974995" stroke-width="1" stroke="#2A2A2Aff" />
<path d="M372.49330459251166,-186.25654370322758 L92.23160939087296,-376.6795166589423" stroke-width="1" stroke="#646464ff" />
<path d="M372.49330459251166,-186.25654370322758 L360.4257267476501,-15.521811057916368" stroke-width="1" stroke="#C6C6C6ff" />
<path d="M372.49330459251166,-186.25654370322758 L62.73613409148262,-358.4851928761703" stroke-width="1" stroke="#101010ff" />
<path d="M372.49330459251166,-186.25654370322758 L61.65791774152307,-66.74555886051311" stroke-width="1" stroke="#696969ff" />
<path d="M372.49330459251166,-186.25654370322758 L223.22321746650485,-142.67442712576278" stroke-width="1" stroke="#929292ff" />
<path d="M372.49330459251166,-186.25654370322758 L310.2818389079767,-342.978822522828" stroke-width="1" stroke="#6D6D6Dff" />
<path d="M372.49330459251166,-186.25654370322758 L234.6117223463767,-197.718636842857" stroke-width="1" stroke="#0E0E0Eff" />
<path d="M372.49330459251166,-186.25654370322758 L48.392854575853896,-242.0434060029401" stroke-width="1" stroke="#E6E6E6ff" />
<path d="M263.9279522852129,-340.3327168916504 L116.57204436618484,-28.460165772522572" stroke-width="1" stroke="#5D5D5Dff" />
<path d="M263.9279522852129,-340.3327168916504 L75.35705995943091,-122.30041216517904" stroke-width="1" stroke="#7D7D7Dff" />
<path d="M263.9279522852129,-340.3327168916504 L360.4257267476501,-15.521811057916368" stroke-width="1" stroke="#D1D1D1ff" />
<path d="M263.9279522852129,-340.3327168916504 L266.1227561681661,-136.91880959534822" stroke-width="1" stroke="#7D7D7Dff" />
<path d="M263.9279522852129,-340.3327168916504 L30.93200835986125,-315.25895489347147" stroke-width="1" stroke="#969696ff" />
<path d="M263.9279522852129,-340.3327168916504 L379.2705148344458,-34.3763895248355" stroke-width="1" stroke="#ADADADff" />
<path d="M263.9279522852129,-340.3327168916504 L215.22885734955355,-52.90907369246787" stroke-width="1" stroke="#8F8F8Fff" />
<path d="M263.9279522852129,-340.3327168916504 L27.63691245426676,-256.69349078153346" stroke-width="1" stroke="#3E3E3Eff" />
<path d="M263.9279522852129,-340.3327168916504 L192.76602056494036,-330.38940880209793" stroke-width="1" stroke="#343434ff" />
<path d="M263.9279522852129,-340.3327168916504 L48.392854575853896,-242.0434060029401" stroke-width="1" stroke="#313131ff" />
<path d="M263.9279522852129,-340.3327168916504 L282.3030238143128,-214.05536306735843" stroke-width="1" stroke="#101010ff" />
<path d="M116.57204436618484,-28.460165772522572 L128.54948382163562,-151.0677994161243" stroke-width="1" stroke="#A4A4A4ff" />
<path d="M116.57204436618484,-28.460165772522572 L27.63691245426676,-256.69349078153346" stroke-width="1" stroke="#171717ff" />
<path d="M116.57204436618484,-28.460165772522572 L290.40411899903853,-345.38100110084844" stroke-width="1" stroke="#CCCCCCff" />
<path d="M116.57204436618484,-28.460165772522572 L114.4105174236926,-235.4839328050793" stroke-width="1" stroke="#535353ff" />
<path d="M116.57204436618484,-28.460165772522572 L140.07822293719352,-4.421166557489986" stroke-width="1" stroke="#191919ff" />
<path d="M116.57204436618484,-28.460165772522572 L27.468594509583212,-272.9344717436426" stroke-width="1" stroke="#595959ff" />
<path d="M116.57204436618484,-28.460165772522572 L340.8120865769337,-221.74761539575877" stroke-width="1" stroke="#525252ff" />
<path d="M116.57204436618484,-28.460165772522572 L28.646638904311537,-7.666773513148106" stroke-width="1" stroke="#4A4A4Aff" />
<path d="M116.57204436618484,-28.460165772522572 L14.243711505807877,-235.21665920550325" stroke-width="1" stroke="#696969ff" />
<path d="M116.57204436618484,-28.460165772522572 L23.67728008159764,-223.07527223713478" stroke-width="1" stroke="#636363ff" />
<path d="M116.57204436618484,-28.460165772522572 L196.21598554988694,-361.79683955752125" stroke-width="1" stroke="#C8C8C8ff" />
<path d="M116.57204436618484,-28.460165772522572 L20.073654530966365,-360.6646977590008" stroke-width="1" stroke="#E3E3E3ff" />
<path d="M116.57204436618484,-28.460165772522572 L159.70011050148466,-213.5469520659658" stroke-width="1" stroke="#B2B2B2ff" />
<path d="M116.57204436618484,-28.460165772522572 L353.5613027979596,-198.62787573004982" stroke-width="1" stroke="#D0D0D0ff" />
<path d="M379.2705148344458,-34.3763895248355 L115.7092689706681,-286.38278531312824" stroke-width="1" stroke="#2F2F2Fff" />
<path d="M379.2705148344458,-34.3763895248355 L215.22885734955355,-52.90907369246787" stroke-width="1" stroke="#E6E6E6ff" />
<path d="M379.2705148344458,-34.3763895248355 L34.56467705527979,-109.03513271762625" stroke-width="1" stroke="#707070ff" />
<path d="M379.2705148344458,-34.3763895248355 L373.9536388315958,-71.48387773015408" stroke-width="1" stroke="#AAAAAAff" />
<path d="M379.2705148344458,-34.3763895248355 L196.21598554988694,-361.79683955752125" stroke-width="1" stroke="#303030ff" />
<path d="M379.2705148344458,-34.3763895248355 L318.1195676901086,-384.0836505750615" stroke-width="1" stroke="#292929ff" />
<path d="M379.2705148344458,-34.3763895248355 L62.73613409148262,-358.4851928761703" stroke-width="1" stroke="#9B9B9Bff" />
<path d="M28.646638904311537,-7.666773513148106 L370.1651422513167,-286.0575442633461" stroke-width="1" stroke="#EFEFEFff" />
<path d="M28.646638904311537,-7.666773513148106 L239.9442193329367,-190.71647383243877" stroke-width="1" stroke="#C9C9C9ff" />
<path d="M28.646638904311537,-7.666773513148106 L108.03292024059346,-63.57940911018019" stroke-width="1" stroke="#252525ff" />
<path d="M28.646638904311537,-7.666773513148106 L311.23367679806057,-275.09435060629255" stroke-width="1" stroke="#A1A1A1ff" />
<path d="M28.646638904311537,-7.666773513148106 L318.1195676901086,-384.0836505750615" stroke-width="1" stroke="#B0B0B0ff" />
<path d="M28.646638904311537,-7.666773513148106 L258.2603679283113,-356.15626402771505" stroke-width="1" stroke="#969696ff" />
<path d="M28.646638904311537,-7.666773513148106 L17.376863588798308,-236.09498475098576" stroke-width="1" stroke="#ABABABff" />
<path d="M28.646638904311537,-7.666773513148106 L123.70282050790462,-80.31846784729595" stroke-width="1" stroke="#464646ff" />
<path d="M28.646638904311537,-7.666773513148106 L135.04373658688164,-130.39846521508545" stroke-width="1" stroke="#E9E9E9ff" />
<path d="M28.646638904311537,-7.666773513148106 L192.76602056494036,-330.38940880209793" stroke-width="1" stroke="#353535ff" />
<path d="M28.646638904311537,-7.666773513148106 L196.21598554988694,-361.79683955752125" stroke-width="1" stroke="#FEFEFEff" />
<path d="M28.646638904311537,-7.666773513148106 L159.70011050148466,-213.5469520659658" stroke-width="1" stroke="#757575ff" />
<path d="M28.646638904311537,-7.666773513148106 L27.468594509583212,-272.9344717436426" stroke-width="1" stroke="#090909ff" />
<path d="M28.646638904311537,-7.666773513148106 L143.82384646736267,-139.37996068278" stroke-width="1" stroke="#4E4E4Eff" />
<path d="M28.646638904311537,-7.666773513148106 L73.54787478676302,-149.60907675061955" stroke-width="1" stroke="#EAEAEAff" />
<path d="M245.07089910886654,-343.21961141748676 L70.42425474716856,-253.89638381138195" stroke-width="1" stroke="#8C8C8Cff" />
<path d="M245.07089910886654,-343.21961141748676 L338.2164431084821,-330.2990003319727" stroke-width="1" stroke="#ECECECff" />
<path d="M245.07089910886654,-343.21961141748676 L189.8103024564092,-42.67271188913697" stroke-width="1" stroke="#F0F0F0ff" />
<path d="M245.07089910886654,-343.21961141748676 L69.43946952914332,-357.5568478628565" stroke-width="1" stroke="#C9C9C9ff" />
<path d="M245.07089910886654,-343.21961141748676 L73.54787478676302,-149.60907675061955" stroke-width="1" stroke="#242424ff" />
<path d="M245.07089910886654,-343.21961141748676 L310.2818389079767,-342.978822522828" stroke-width="1" stroke="#7F7F7Fff" />
<path d="M245.07089910886654,-343.21961141748676 L187.40257789298954,-240.43785495333378" stroke-width="1" stroke="#F0F0F0ff" />
<path d="M245.07089910886654,-343.21961141748676 L137.13232604233383,-221.2888595749888" stroke-width="1" stroke="#3B3B3Bff" />
<path d="M245.07089910886654,-343.21961141748676 L360.4257267476501,-15.521811057916368" stroke-width="1" stroke="#767676ff" />
<path d="M245.07089910886654,-343.21961141748676 L301.31925996791205,-192.21405470008253" stroke-width="1" stroke="#6C6C6Cff" />
<path d="M245.07089910886654,-343.21961141748676 L114.4105174236926,-235.4839328050793" stroke-width="1" stroke="#EDEDEDff" />
<path d="M14.243711505807877,-235.21665920550325 L133.93875853036366,-371.0343986974995" stroke-width="1" stroke="#0E0E0Eff" />
<path d="M14.243711505807877,-235.21665920550325 L110.26675545283355,-161.30103376563505" stroke-width="1" stroke="#FDFDFDff" />
<path d="M14.243711505807877,-235.21665920550325 L318.1195676901086,-384.0836505750615" stroke-width="1" stroke="#D1D1D1ff" />
<path d="M14.243711505807877,-235.21665920550325 L258.2603679283113,-356.15626402771505" stroke-width="1" stroke="#B4B4B4ff" />
<path d="M14.243711505807877,-235.21665920550325 L34.56467705527979,-109.03513271762625" stroke-width="1" stroke="#181818ff" />
<path d="M14.243711505807877,-235.21665920550325 L272.53334795303317,-91.84137840115598" stroke-width="1" stroke="#0F0F0Fff" />
<path d="M14.243711505807877,-235.21665920550325 L108.03292024059346,-63.57940911018019" stroke-width="1" stroke="#444444ff" />
<path d="M14.243711505807877,-235.21665920550325 L289.9542707441109,-33.64434057065311" stroke-width="1" stroke="#B3B3B3ff" />
<path d="M14.243711505807877,-235.21665920550325 L69.43946952914332,-357.5568478628565" stroke-width="1" stroke="#BFBFBFff" />
<path d="M206.34173281150314,-249.089818450554 L206.34173281150314,-249.089818450554" stroke-width="1" stroke="#818181ff" />
<path d="M206.34173281150314,-249.089818450554 L80.82984608048478,-60.93454047819957" stroke-width="1" stroke="#9D9D9Dff" />
<path d="M206.34173281150314,-249.089818450554 L65.56089395733942,-100.42845614289311" stroke-width="1" stroke="#838383ff" />
<path d="M206.34173281150314,-249.089818450554 L290.40411899903853,-345.38100110084844" stroke-width="1" stroke="#4A4A4Aff" />
<path d="M206.34173281150314,-249.089818450554 L338.2164431084821,-330.2990003319727" stroke-width="1" stroke="#2A2A2Aff" />
<path d="M206.34173281150314,-249.089818450554 L9.485523618060743,-105.61877720351998" stroke-width="1" stroke="#333333ff" />
<path d="M206.34173281150314,-249.089818450554 L289.9542707441109,-33.64434057065311" stroke-width="1" stroke="#5F5F5Fff" />
<path d="M206.34173281150314,-249.089818450554 L30.93200835986125,-315.25895489347147" stroke-width="1" stroke="#1F1F1Fff" />
<path d="M206.34173281150314,-249.089818450554 L73.66996773497077,-349.9593607109606" stroke-width="1" stroke="#C1C1C1ff" />
<path d="M206.34173281150314,-249.089818450554 L20.914389325736327,-79.51741612641695" stroke-width="1" stroke="#0A0A0Aff" />
<path d="M206.34173281150314,-249.089818450554 L258.2603679283113,-356.15626402771505" stroke-width="1" stroke="#626262ff" />
<path d="M123.70282050790462,-80.31846784729595 L135.04373658688164,-130.39846521508545" stroke-width="1" stroke="#030303ff" />
<path d="M123.70282050790462,-80.31846784729595 L34.56467705527979,-109.03513271762625" stroke-width="1" stroke="#DFDFDFff" />
<path d="M123.70282050790462,-80.31846784729595 L70.42425474716856,-253.89638381138195" stroke-width="1" stroke="#F7F7F7ff" />
<path d="M123.70282050790462,-80.31846784729595 L239.9442193329367,-190.71647383243877" stroke-width="1" stroke="#484848ff" />
<path d="M123.70282050790462,-80.31846784729595 L92.23160939087296,-376.6795166589423" stroke-width="1" stroke="#D3D3D3ff" />
<path d="M123.70282050790462,-80.31846784729595 L266.1227561681661,-136.91880959534822" stroke-width="1" stroke="#ACACACff" />
<path d="M123.70282050790462,-80.31846784729595 L311.23367679806057,-275.09435060629255" stroke-width="1" stroke="#1F1F1Fff" />
<path d="M123.70282050790462,-80.31846784729595 L194.9172906021055,-260.0728521001391" stroke-width="1" stroke="#6C6C6Cff" />
<path d="M123.70282050790462,-80.31846784729595 L370.1651422513167,-286.0575442633461" stroke-width="1" stroke="#6F6F6Fff" />
<path d="M123.70282050790462,-80.31846784729595 L66.98588484917462,-38.444234184229444" stroke-width="1" stroke="#040404ff" />
<path d="M123.70282050790462,-80.31846784729595 L360.4257267476501,-15.521811057916368" stroke-width="1" stroke="#C9C9C9ff" />
<path d="M123.70282050790462,-80.31846784729595 L62.73613409148262,-358.4851928761703" stroke-width="1" stroke="#BCBCBCff" />
<path d="M123.70282050790462,-80.31846784729595 L192.76602056494036,-330.38940880209793" stroke-width="1" stroke="#5E5E5Eff" />
<path d="M123.70282050790462,-80.31846784729595 L9.485523618060743,-105.61877720351998" stroke-width="1" stroke="#2A2A2Aff" />
<path d="M123.70282050790462,-80.31846784729595 L159.70011050148466,-213.5469520659658" stroke-width="1" stroke="#E1E1E1ff" />
<path d="M123.70282050790462,-80.31846784729595 L372.09966848077295,-185.22034290950532" stroke-width="1" stroke="#606060ff" />
<path d="M109.39449585862424,-393.48873563523114 L70.42425474716856,-253.89638381138195" stroke-width="1" stroke="#3C3C3Cff" />
<path d="M109.39449585862424,-393.48873563523114 L116.609030539423,-300.8116937270986" stroke-width="1" stroke="#EFEFEFff" />
<path d="M109.39449585862424,-393.48873563523114 L301.31925996791205,-192.21405470008253" stroke-width="1" stroke="#909090ff" />
<path d="M109.39449585862424,-393.48873563523114 L121.69145628735455,-294.6512136742427" stroke-width="1" stroke="#ACACACff" />
<path d="M109.39449585862424,-393.48873563523114 L17.14499012941788,-373.0699610860204" stroke-width="1" stroke="#282828ff" />
<path d="M109.39449585862424,-393.48873563523114 L223.22321746650485,-142.67442712576278" stroke-width="1" stroke="#F6F6F6ff" />
<path d="M109.39449585862424,-393.48873563523114 L34.56467705527979,-109.03513271762625" stroke-width="1" stroke="#0F0F0Fff" />
<path d="M109.39449585862424,-393.48873563523114 L157.5120561308932,-11.160338095082967" stroke-width="1" stroke="#DDDDDDff" />
<path d="M109.39449585862424,-393.48873563523114 L69.43946952914332,-357.5568478628565" stroke-width="1" stroke="#0F0F0Fff" />
<path d="M109.39449585862424,-393.48873563523114 L345.23107881751895,-390.43111902104044" stroke-width="1" stroke="#3E3E3Eff" />
<path d="M135.04373658688164,-130.39846521508545 L128.54948382163562,-151.0677994161243" stroke-width="1" stroke="#B9B9B9ff" />
<path d="M135.04373658688164,-130.39846521508545 L17.14499012941788,-373.0699610860204" stroke-width="1" stroke="#8C8C8Cff" />
<path d="M135.04373658688164,-130.39846521508545 L157.5120561308932,-11.160338095082967" stroke-width="1" stroke="#1D1D1Dff" />
<path d="M135.04373658688164,-130.39846521508545 L207.84258345135208,-92.89121372482106" stroke-width="1" stroke="#BCBCBCff" />
<path d="M135.04373658688164,-130.39846521508545 L247.26081284563355,-315.3366074646819" stroke-width="1" stroke="#FBFBFBff" />
<path d="M135.04373658688164,-130.39846521508545 L17.376863588798308,-236.09498475098576" stroke-width="1" stroke="#1D1D1Dff" />
<path d="M135.04373658688164,-130.39846521508545 L20.073654530966365,-360.6646977590008" stroke-width="1" stroke="#777777ff" />
<path d="M135.04373658688164,-130.39846521508545 L340.8120865769337,-221.74761539575877" stroke-width="1" stroke="#7B7B7Bff" />
<path d="M135.04373658688164,-130.39846521508545 L370.1651422513167,-286.0575442633461" stroke-width="1" stroke="#6C6C6Cff" />
<path d="M135.04373658688164,-130.39846521508545 L289.931700842489,-155.73561328432208" stroke-width="1" stroke="#0B0B0Bff" />
<path d="M135.04373658688164,-130.39846521508545 L257.7041697632521,-153.39505243862544" stroke-width="1" stroke="#252525ff" />
<path d="M135.04373658688164,-130.39846521508545 L194.9172906021055,-260.0728521001391" stroke-width="1" stroke="#858585ff" />
<path d="M75.35705995943091,-122.30041216517904 L379.52406153569285,-110.4887063223452" stroke-width="1" stroke="#4B4B4Bff" />
<path d="M75.35705995943091,-122.30041216517904 L115.7092689706681,-286.38278531312824" stroke-width="1" stroke="#969696ff" />
<path d="M75.35705995943091,-122.30041216517904 L373.9536388315958,-71.48387773015408" stroke-width="1" stroke="#EAEAEAff" />
<path d="M75.35705995943091,-122.30041216517904 L74.1449737859273,-63.72114764878138" stroke-width="1" stroke="#606060ff" />
<path d="M75.35705995943091,-122.30041216517904 L363.6613468986959,-174.41596609129385" stroke-width="1" stroke="#777777ff" />
<path d="M75.35705995943091,-122.30041216517904 L234.6117223463767,-197.718636842857" stroke-width="1" stroke="#F6F6F6ff" />
<path d="M75.35705995943091,-122.30041216517904 L23.67728008159764,-223.07527223713478" stroke-width="1" stroke="#464646ff" />
<path d="M75.35705995943091,-122.30041216517904 L301.31925996791205,-192.21405470008253" stroke-width="1" stroke="#323232ff" />
<path d="M75.35705995943091,-122.30041216517904 L318.1195676901086,-384.0836505750615" stroke-width="1" stroke="#EAEAEAff" />
<path d="M75.35705995943091,-122.30041216517904 L65.56089395733942,-100.42845614289311" stroke-width="1" stroke="#E2E2E2ff" />
<path d="M75.35705995943091,-122.30041216517904 L34.56467705527979,-109.03513271762625" stroke-width="1" stroke="#EEEEEEff" />
<path d="M75.35705995943091,-122.30041216517904 L27.63691245426676,-256.69349078153346" stroke-width="1" stroke="#B7B7B7ff" />
<path d="M75.35705995943091,-122.30041216517904 L118.4528440623601,-183.71492374198542" stroke-width="1" stroke="#B2B2B2ff" />
<path d="M75.35705995943091,-122.30041216517904 L247.26081284563355,-315.3366074646819" stroke-width="1" stroke="#737373ff" />
<path d="M75.35705995943091,-122.30041216517904 L73.54787478676302,-149.60907675061955" stroke-width="1" stroke="#D9D9D9ff" />
<path d="M379.52406153569285,-110.4887063223452 L34.56467705527979,-109.03513271762625" stroke-width="1" stroke="#303030ff" />
<path d="M379.52406153569285,-110.4887063223452 L66.98588484917462,-38.444234184229444" stroke-width="1" stroke="#4A4A4Aff" />
<path d="M379.52406153569285,-110.4887063223452 L363.6613468986959,-174.41596609129385" stroke-width="1" stroke="#4C4C4Cff" />
<path d="M379.52406153569285,-110.4887063223452 L48.392854575853896,-242.0434060029401" stroke-width="1" stroke="#BFBFBFff" />
<path d="M379.52406153569285,-110.4887063223452 L194.9172906021055,-260.0728521001391" stroke-width="1" stroke="#D6D6D6ff" />
<path d="M379.52406153569285,-110.4887063223452 L247.26081284563355,-315.3366074646819" stroke-width="1" stroke="#B7B7B7ff" />
<path d="M379.52406153569285,-110.4887063223452 L118.4528440623601,-183.71492374198542" stroke-width="1" stroke="#4E4E4Eff" />
<path d="M379.52406153569285,-110.4887063223452 L74.1449737859273,-63.72114764878138" stroke-width="1" stroke="#CECECEff" />
<path d="M379.52406153569285,-110.4887063223452 L116.609030539423,-300.8116937270986" stroke-width="1" stroke="#C3C3C3ff" />
<path d="M379.52406153569285,-110.4887063223452 L159.70011050148466,-213.5469520659658" stroke-width="1" stroke="#868686ff" />
<path d="M115.7092689706681,-286.38278531312824 L310.2818389079767,-342.978822522828" stroke-width="1" stroke="#939393ff" />
<path d="M115.7092689706681,-286.38278531312824 L272.53334795303317,-91.84137840115598" stroke-width="1" stroke="#7E7E7Eff" />
<path d="M115.7092689706681,-286.38278531312824 L353.4217575252891,-116.55277718636583" stroke-width="1" stroke="#0B0B0Bff" />
<path d="M115.7092689706681,-286.38278531312824 L92.23160939087296,-376.6795166589423" stroke-width="1" stroke="#B2B2B2ff" />
<path d="M115.7092689706681,-286.38278531312824 L196.21598554988694,-361.79683955752125" stroke-width="1" stroke="#7C7C7Cff" />
<path d="M115.7092689706681,-286.38278531312824 L20.914389325736327,-79.51741612641695" stroke-width="1" stroke="#0E0E0Eff" />
<path d="M115.7092689706681,-286.38278531312824 L289.9542707441109,-33.64434057065311" stroke-width="1" stroke="#B1B1B1ff" />
<path d="M115.7092689706681,-286.38278531312824 L118.4528440623601,-183.71492374198542" stroke-width="1" stroke="#434343ff" />
<path d="M115.7092689706681,-286.38278531312824 L143.82384646736267,-139.37996068278" stroke-width="1" stroke="#101010ff" />
<path d="M80.82984608048478,-60.93454047819957 L223.22321746650485,-142.67442712576278" stroke-width="1" stroke="#101010ff" />
<path d="M80.82984608048478,-60.93454047819957 L137.13232604233383,-221.2888595749888" stroke-width="1" stroke="#191919ff" />
<path d="M80.82984608048478,-60.93454047819957 L233.80005106800783,-366.3212626263572" stroke-width="1" stroke="#919191ff" />
<path d="M80.82984608048478,-60.93454047819957 L74.1449737859273,-63.72114764878138" stroke-width="1" stroke="#EDEDEDff" />
<path d="M80.82984608048478,-60.93454047819957 L207.0641328419157,-343.8588834118746" stroke-width="1" stroke="#CBCBCBff" />
<path d="M80.82984608048478,-60.93454047819957 L159.70011050148466,-213.5469520659658" stroke-width="1" stroke="#1D1D1Dff" />
<path d="M80.82984608048478,-60.93454047819957 L140.07822293719352,-4.421166557489986" stroke-width="1" stroke="#161616ff" />
<path d="M80.82984608048478,-60.93454047819957 L61.65791774152307,-66.74555886051311" stroke-width="1" stroke="#444444ff" />
<path d="M80.82984608048478,-60.93454047819957 L30.93200835986125,-315.25895489347147" stroke-width="1" stroke="#242424ff" />
<path d="M128.54948382163562,-151.0677994161243 L223.22321746650485,-142.67442712576278" stroke-width="1" stroke="#373737ff" />
<path d="M128.54948382163562,-151.0677994161243 L360.4257267476501,-15.521811057916368" stroke-width="1" stroke="#D4D4D4ff" />
<path d="M128.54948382163562,-151.0677994161243 L289.931700842489,-155.73561328432208" stroke-width="1" stroke="#838383ff" />
<path d="M128.54948382163562,-151.0677994161243 L61.65791774152307,-66.74555886051311" stroke-width="1" stroke="#787878ff" />
<path d="M128.54948382163562,-151.0677994161243 L192.76602056494036,-330.38940880209793" stroke-width="1" stroke="#424242ff" />
<path d="M128.54948382163562,-151.0677994161243 L301.31925996791205,-192.21405470008253" stroke-width="1" stroke="#CACACAff" />
<path d="M128.54948382163562,-151.0677994161243 L207.84258345135208,-92.89121372482106" stroke-width="1" stroke="#5B5B5Bff" />
<path d="M128.54948382163562,-151.0677994161243 L372.09966848077295,-185.22034290950532" stroke-width="1" stroke="#6D6D6Dff" />
<path d="M17.14499012941788,-373.0699610860204 L133.93875853036366,-371.0343986974995" stroke-width="1" stroke="#B0B0B0ff" />
<path d="M17.14499012941788,-373.0699610860204 L187.40257789298954,-240.43785495333378" stroke-width="1" stroke="#1E1E1Eff" />
<path d="M17.14499012941788,-373.0699610860204 L62.18358545965006,-356.3042475808088" stroke-width="1" stroke="#D3D3D3ff" />
<path d="M17.14499012941788,-373.0699610860204 L239.9442193329367,-190.71647383243877" stroke-width="1" stroke="#E7E7E7ff" />
<path d="M17.14499012941788,-373.0699610860204 L92.23160939087296,-376.6795166589423" stroke-width="1" stroke="#525252ff" />
<path d="M17.14499012941788,-373.0699610860204 L31.85030668896749,-342.0492859010785" stroke-width="1" stroke="#ACACACff" />
<path d="M17.14499012941788,-373.0699610860204 L9.485523618060743,-105.61877720351998" stroke-width="1" stroke="#080808ff" />
<path d="M17.14499012941788,-373.0699610860204 L282.3030238143128,-214.05536306735843" stroke-width="1" stroke="#FAFAFAff" />
<path d="M17.14499012941788,-373.0699610860204 L30.93200835986125,-315.25895489347147" stroke-width="1" stroke="#282828ff" />
<path d="M17.14499012941788,-373.0699610860204 L345.23107881751895,-390.43111902104044" stroke-width="1" stroke="#A6A6A6ff" />
<path d="M17.14499012941788,-373.0699610860204 L70.42425474716856,-253.89638381138195" stroke-width="1" stroke="#4B4B4Bff" />
<path d="M17.14499012941788,-373.0699610860204 L73.66996773497077,-349.9593607109606" stroke-width="1" stroke="#F6F6F6ff" />
<path d="M17.14499012941788,-373.0699610860204 L114.4105174236926,-235.4839328050793" stroke-width="1" stroke="#888888ff" />
<path d="M223.22321746650485,-142.67442712576278 L228.66254312439008,-185.09908423771094" stroke-width="1" stroke="#D3D3D3ff" />
<path d="M223.22321746650485,-142.67442712576278 L73.66996773497077,-349.9593607109606" stroke-width="1" stroke="#1B1B1Bff" />
<path d="M223.22321746650485,-142.67442712576278 L116.609030539423,-300.8116937270986" stroke-width="1" stroke="#838383ff" />
<path d="M223.22321746650485,-142.67442712576278 L394.0559949307701,-359.5438632089431" stroke-width="1" stroke="#EFEFEFff" />
<path d="M223.22321746650485,-142.67442712576278 L289.9542707441109,-33.64434057065311" stroke-width="1" stroke="#C1C1C1ff" />
<path d="M223.22321746650485,-142.67442712576278 L69.43946952914332,-357.5568478628565" stroke-width="1" stroke="#8A8A8Aff" />
<path d="M223.22321746650485,-142.67442712576278 L310.77193393331083,-78.15084774071433" stroke-width="1" stroke="#686868ff" />
<path d="M223.22321746650485,-142.67442712576278 L310.2818389079767,-342.978822522828" stroke-width="1" stroke="#676767ff" />
<path d="M223.22321746650485,-142.67442712576278 L20.914389325736327,-79.51741612641695" stroke-width="1" stroke="#777777ff" />
<path d="M223.22321746650485,-142.67442712576278 L159.70011050148466,-213.5469520659658" stroke-width="1" stroke="#141414ff" />
<path d="M223.22321746650485,-142.67442712576278 L340.8120865769337,-221.74761539575877" stroke-width="1" stroke="#444444ff" />
<path d="M316.3772382859166,-193.65088749060448 L228.66254312439008,-185.09908423771094" stroke-width="1" stroke="#FEFEFEff" />
<path d="M316.3772382859166,-193.65088749060448 L353.4217575252891,-116.55277718636583" stroke-width="1" stroke="#636363ff" />
<path d="M316.3772382859166,-193.65088749060448 L110.26675545283355,-161.30103376563505" stroke-width="1" stroke="#121212ff" />
<path d="M316.3772382859166,-193.65088749060448 L360.4257267476501,-15.521811057916368" stroke-width="1" stroke="#878787ff" />
<path d="M316.3772382859166,-193.65088749060448 L116.609030539423,-300.8116937270986" stroke-width="1" stroke="#636363ff" />
<path d="M316.3772382859166,-193.65088749060448 L194.9172906021055,-260.0728521001391" stroke-width="1" stroke="#CDCDCDff" />
<path d="M316.3772382859166,-193.65088749060448 L345.23107881751895,-390.43111902104044" stroke-width="1" stroke="#8D8D8Dff" />
<path d="M316.3772382859166,-193.65088749060448 L157.5120561308932,-11.160338095082967" stroke-width="1" stroke="#454545ff" />
<path d="M316.3772382859166,-193.65088749060448 L257.7041697632521,-153.39505243862544" stroke-width="1" stroke="#818181ff" />
<path d="M228.66254312439008,-185.09908423771094 L92.23160939087296,-376.6795166589423" stroke-width="1" stroke="#EEEEEEff" />
<path d="M228.66254312439008,-185.09908423771094 L192.76602056494036,-330.38940880209793" stroke-width="1" stroke="#7F7F7Fff" />
<path d="M228.66254312439008,-185.09908423771094 L73.66996773497077,-349.9593607109606" stroke-width="1" stroke="#808080ff" />
<path d="M215.22885734955355,-52.90907369246787 L310.77193393331083,-78.15084774071433" stroke-width="1" stroke="#252525ff" />
<path d="M215.22885734955355,-52.90907369246787 L62.73613409148262,-358.4851928761703" stroke-width="1" stroke="#151515ff" />
<path d="M215.22885734955355,-52.90907369246787 L318.1195676901086,-384.0836505750615" stroke-width="1" stroke="#D0D0D0ff" />
<path d="M215.22885734955355,-52.90907369246787 L247.26081284563355,-315.3366074646819" stroke-width="1" stroke="#EFEFEFff" />
<path d="M215.22885734955355,-52.90907369246787 L394.0559949307701,-359.5438632089431" stroke-width="1" stroke="#B0B0B0ff" />
<path d="M215.22885734955355,-52.90907369246787 L73.54787478676302,-149.60907675061955" stroke-width="1" stroke="#747474ff" />
<path d="M215.22885734955355,-52.90907369246787 L363.6613468986959,-174.41596609129385" stroke-width="1" stroke="#616161ff" />
<path d="M215.22885734955355,-52.90907369246787 L48.392854575853896,-242.0434060029401" stroke-width="1" stroke="#BEBEBEff" />
<path d="M215.22885734955355,-52.90907369246787 L362.39831417612356,-275.38269872103587" stroke-width="1" stroke="#7C7C7Cff" />
<path d="M370.1651422513167,-286.0575442633461 L34.56467705527979,-109.03513271762625" stroke-width="1" stroke="#5C5C5Cff" />
<path d="M370.1651422513167,-286.0575442633461 L140.07822293719352,-4.421166557489986" stroke-width="1" stroke="#6B6B6Bff" />
<path d="M370.1651422513167,-286.0575442633461 L340.8120865769337,-221.74761539575877" stroke-width="1" stroke="#C2C2C2ff" />
<path d="M65.56089395733942,-100.42845614289311 L66.98588484917462,-38.444234184229444" stroke-width="1" stroke="#020202ff" />
<path d="M65.56089395733942,-100.42845614289311 L110.26675545283355,-161.30103376563505" stroke-width="1" stroke="#E2E2E2ff" />
<path d="M65.56089395733942,-100.42845614289311 L233.80005106800783,-366.3212626263572" stroke-width="1" stroke="#B4B4B4ff" />
<path d="M65.56089395733942,-100.42845614289311 L62.73613409148262,-358.4851928761703" stroke-width="1" stroke="#7E7E7Eff" />
<path d="M65.56089395733942,-100.42845614289311 L74.1449737859273,-63.72114764878138" stroke-width="1" stroke="#ADADADff" />
<path d="M65.56089395733942,-100.42845614289311 L289.9542707441109,-33.64434057065311" stroke-width="1" stroke="#C9C9C9ff" />
<path d="M65.56089395733942,-100.42845614289311 L290.40411899903853,-345.38100110084844" stroke-width="1" stroke="#9B9B9Bff" />
<path d="M65.56089395733942,-100.42845614289311 L207.0641328419157,-343.8588834118746" stroke-width="1" stroke="#CDCDCDff" />
<path d="M65.56089395733942,-100.42845614289311 L48.392854575853896,-242.0434060029401" stroke-width="1" stroke="#EEEEEEff" />
<path d="M34.56467705527979,-109.03513271762625 L338.2164431084821,-330.2990003319727" stroke-width="1" stroke="#EBEBEBff" />
<path d="M34.56467705527979,-109.03513271762625 L31.85030668896749,-342.0492859010785" stroke-width="1" stroke="#383838ff" />
<path d="M34.56467705527979,-109.03513271762625 L9.485523618060743,-105.61877720351998" stroke-width="1" stroke="#666666ff" />
<path d="M34.56467705527979,-109.03513271762625 L70.42425474716856,-253.89638381138195" stroke-width="1" stroke="#5D5D5Dff" />
<path d="M34.56467705527979,-109.03513271762625 L310.2818389079767,-342.978822522828" stroke-width="1" stroke="#666666ff" />
<path d="M34.56467705527979,-109.03513271762625 L69.43946952914332,-357.5568478628565" stroke-width="1" stroke="#E0E0E0ff" />
<path d="M310.77193393331083,-78.15084774071433 L27.63691245426676,-256.69349078153346" stroke-width="1" stroke="#474747ff" />
<path d="M310.77193393331083,-78.15084774071433 L70.42425474716856,-253.89638381138195" stroke-width="1" stroke="#DEDEDEff" />
<path d="M310.77193393331083,-78.15084774071433 L73.66996773497077,-349.9593607109606" stroke-width="1" stroke="#101010ff" />
<path d="M310.77193393331083,-78.15084774071433 L61.65791774152307,-66.74555886051311" stroke-width="1" stroke="#EAEAEAff" />
<path d="M310.77193393331083,-78.15084774071433 L23.67728008159764,-223.07527223713478" stroke-width="1" stroke="#959595ff" />
<path d="M310.77193393331083,-78.15084774071433 L143.82384646736267,-139.37996068278" stroke-width="1" stroke="#E3E3E3ff" />
<path d="M310.77193393331083,-78.15084774071433 L121.69145628735455,-294.6512136742427" stroke-width="1" stroke="#909090ff" />
<path d="M310.77193393331083,-78.15084774071433 L192.76602056494036,-330.38940880209793" stroke-width="1" stroke="#909090ff" />
<path d="M310.77193393331083,-78.15084774071433 L257.7041697632521,-153.39505243862544" stroke-width="1" stroke="#3F3F3Fff" />
<path d="M310.77193393331083,-78.15084774071433 L345.23107881751895,-390.43111902104044" stroke-width="1" stroke="#6C6C6Cff" />
<path d="M27.63691245426676,-256.69349078153346 L310.2818389079767,-342.978822522828" stroke-width="1" stroke="#4F4F4Fff" />
<path d="M27.63691245426676,-256.69349078153346 L266.1227561681661,-136.91880959534822" stroke-width="1" stroke="#A9A9A9ff" />
<path d="M27.63691245426676,-256.69349078153346 L20.073654530966365,-360.6646977590008" stroke-width="1" stroke="#121212ff" />
<path d="M27.63691245426676,-256.69349078153346 L311.23367679806057,-275.09435060629255" stroke-width="1" stroke="#F2F2F2ff" />
<path d="M27.63691245426676,-256.69349078153346 L20.914389325736327,-79.51741612641695" stroke-width="1" stroke="#454545ff" />
<path d="M27.63691245426676,-256.69349078153346 L194.9172906021055,-260.0728521001391" stroke-width="1" stroke="#474747ff" />
<path d="M27.63691245426676,-256.69349078153346 L121.69145628735455,-294.6512136742427" stroke-width="1" stroke="#1E1E1Eff" />
<path d="M27.63691245426676,-256.69349078153346 L73.54787478676302,-149.60907675061955" stroke-width="1" stroke="#D3D3D3ff" />
<path d="M373.9536388315958,-71.48387773015408 L62.73613409148262,-358.4851928761703" stroke-width="1" stroke="#EDEDEDff" />
<path d="M373.9536388315958,-71.48387773015408 L301.31925996791205,-192.21405470008253" stroke-width="1" stroke="#C5C5C5ff" />
<path d="M373.9536388315958,-71.48387773015408 L48.392854575853896,-242.0434060029401" stroke-width="1" stroke="#A8A8A8ff" />
<path d="M373.9536388315958,-71.48387773015408 L114.4105174236926,-235.4839328050793" stroke-width="1" stroke="#747474ff" />
<path d="M373.9536388315958,-71.48387773015408 L340.8120865769337,-221.74761539575877" stroke-width="1" stroke="#636363ff" />
<path d="M373.9536388315958,-71.48387773015408 L70.42425474716856,-253.89638381138195" stroke-width="1" stroke="#595959ff" />
<path d="M373.9536388315958,-71.48387773015408 L192.76602056494036,-330.38940880209793" stroke-width="1" stroke="#8E8E8Eff" />
<path d="M373.9536388315958,-71.48387773015408 L234.6117223463767,-197.718636842857" stroke-width="1" stroke="#414141ff" />
<path d="M373.9536388315958,-71.48387773015408 L17.376863588798308,-236.09498475098576" stroke-width="1" stroke="#858585ff" />
<path d="M373.9536388315958,-71.48387773015408 L140.07822293719352,-4.421166557489986" stroke-width="1" stroke="#6A6A6Aff" />
<path d="M373.9536388315958,-71.48387773015408 L289.9542707441109,-33.64434057065311" stroke-width="1" stroke="#535353ff" />
<path d="M70.42425474716856,-253.89638381138195 L318.1195676901086,-384.0836505750615" stroke-width="1" stroke="#6D6D6Dff" />
<path d="M70.42425474716856,-253.89638381138195 L159.70011050148466,-213.5469520659658" stroke-width="1" stroke="#707070ff" />
<path d="M70.42425474716856,-253.89638381138195 L121.69145628735455,-294.6512136742427" stroke-width="1" stroke="#676767ff" />
<path d="M70.42425474716856,-253.89638381138195 L108.03292024059346,-63.57940911018019" stroke-width="1" stroke="#F1F1F1ff" />
<path d="M70.42425474716856,-253.89638381138195 L74.1449737859273,-63.72114764878138" stroke-width="1" stroke="#040404ff" />
<path d="M70.42425474716856,-253.89638381138195 L69.43946952914332,-357.5568478628565" stroke-width="1" stroke="#EEEEEEff" />
<path d="M310.2818389079767,-342.978822522828 L73.54787478676302,-149.60907675061955" stroke-width="1" stroke="#818181ff" />
<path d="M310.2818389079767,-342.978822522828 L108.03292024059346,-63.57940911018019" stroke-width="1" stroke="#D7D7D7ff" />
<path d="M310.2818389079767,-342.978822522828 L189.8103024564092,-42.67271188913697" stroke-width="1" stroke="#1E1E1Eff" />
<path d="M310.2818389079767,-342.978822522828 L340.8120865769337,-221.74761539575877" stroke-width="1" stroke="#939393ff" />
<path d="M272.53334795303317,-91.84137840115598 L133.93875853036366,-371.0343986974995" stroke-width="1" stroke="#747474ff" />
<path d="M272.53334795303317,-91.84137840115598 L48.392854575853896,-242.0434060029401" stroke-width="1" stroke="#2F2F2Fff" />
<path d="M272.53334795303317,-91.84137840115598 L73.54787478676302,-149.60907675061955" stroke-width="1" stroke="#5A5A5Aff" />
<path d="M272.53334795303317,-91.84137840115598 L248.22049228541775,-0.8934617093670383" stroke-width="1" stroke="#0D0D0Dff" />
<path d="M272.53334795303317,-91.84137840115598 L338.2164431084821,-330.2990003319727" stroke-width="1" stroke="#353535ff" />
<path d="M272.53334795303317,-91.84137840115598 L345.23107881751895,-390.43111902104044" stroke-width="1" stroke="#EFEFEFff" />
<path d="M66.98588484917462,-38.444234184229444 L360.4257267476501,-15.521811057916368" stroke-width="1" stroke="#E2E2E2ff" />
<path d="M66.98588484917462,-38.444234184229444 L73.54787478676302,-149.60907675061955" stroke-width="1" stroke="#C7C7C7ff" />
<path d="M66.98588484917462,-38.444234184229444 L61.65791774152307,-66.74555886051311" stroke-width="1" stroke="#F5F5F5ff" />
<path d="M73.66996773497077,-349.9593607109606 L363.6613468986959,-174.41596609129385" stroke-width="1" stroke="#9E9E9Eff" />
<path d="M73.66996773497077,-349.9593607109606 L9.485523618060743,-105.61877720351998" stroke-width="1" stroke="#ACACACff" />
<path d="M73.66996773497077,-349.9593607109606 L290.40411899903853,-345.38100110084844" stroke-width="1" stroke="#6D6D6Dff" />
<path d="M73.66996773497077,-349.9593607109606 L143.82384646736267,-139.37996068278" stroke-width="1" stroke="#CECECEff" />
<path d="M133.93875853036366,-371.0343986974995 L290.40411899903853,-345.38100110084844" stroke-width="1" stroke="#4B4B4Bff" />
<path d="M133.93875853036366,-371.0343986974995 L46.859879619762346,-148.01907037843054" stroke-width="1" stroke="#F3F3F3ff" />
<path d="M133.93875853036366,-371.0343986974995 L62.73613409148262,-358.4851928761703" stroke-width="1" stroke="#585858ff" />
<path d="M133.93875853036366,-371.0343986974995 L74.1449737859273,-63.72114764878138" stroke-width="1" stroke="#989898ff" />
<path d="M133.93875853036366,-371.0343986974995 L27.468594509583212,-272.9344717436426" stroke-width="1" stroke="#E9E9E9ff" />
<path d="M353.4217575252891,-116.55277718636583 L157.5120561308932,-11.160338095082967" stroke-width="1" stroke="#484848ff" />
<path d="M353.4217575252891,-116.55277718636583 L108.03292024059346,-63.57940911018019" stroke-width="1" stroke="#B6B6B6ff" />
<path d="M353.4217575252891,-116.55277718636583 L266.1227561681661,-136.91880959534822" stroke-width="1" stroke="#0B0B0Bff" />
<path d="M353.4217575252891,-116.55277718636583 L338.2164431084821,-330.2990003319727" stroke-width="1" stroke="#E6E6E6ff" />
<path d="M353.4217575252891,-116.55277718636583 L290.40411899903853,-345.38100110084844" stroke-width="1" stroke="#DFDFDFff" />
<path d="M353.4217575252891,-116.55277718636583 L194.9172906021055,-260.0728521001391" stroke-width="1" stroke="#6A6A6Aff" />
<path d="M376.6341470210492,-396.92037787310585 L118.4528440623601,-183.71492374198542" stroke-width="1" stroke="#F5F5F5ff" />
<path d="M376.6341470210492,-396.92037787310585 L46.859879619762346,-148.01907037843054" stroke-width="1" stroke="#B4B4B4ff" />
<path d="M376.6341470210492,-396.92037787310585 L311.23367679806057,-275.09435060629255" stroke-width="1" stroke="#A5A5A5ff" />
<path d="M376.6341470210492,-396.92037787310585 L23.67728008159764,-223.07527223713478" stroke-width="1" stroke="#212121ff" />
<path d="M376.6341470210492,-396.92037787310585 L110.26675545283355,-161.30103376563505" stroke-width="1" stroke="#050505ff" />
<path d="M376.6341470210492,-396.92037787310585 L62.18358545965006,-356.3042475808088" stroke-width="1" stroke="#8A8A8Aff" />
<path d="M376.6341470210492,-396.92037787310585 L338.2164431084821,-330.2990003319727" stroke-width="1" stroke="#6C6C6Cff" />
<path d="M376.6341470210492,-396.92037787310585 L394.0559949307701,-359.5438632089431" stroke-width="1" stroke="#7E7E7Eff" />
<path d="M187.40257789298954,-240.43785495333378 L114.4105174236926,-235.4839328050793" stroke-width="1" stroke="#8E8E8Eff" />
<path d="M187.40257789298954,-240.43785495333378 L62.18358545965006,-356.3042475808088" stroke-width="1" stroke="#939393ff" />
<path d="M187.40257789298954,-240.43785495333378 L207.0641328419157,-343.8588834118746" stroke-width="1" stroke="#9B9B9Bff" />
<path d="M187.40257789298954,-240.43785495333378 L301.31925996791205,-192.21405470008253" stroke-width="1" stroke="#A0A0A0ff" />
<path d="M187.40257789298954,-240.43785495333378 L20.073654530966365,-360.6646977590008" stroke-width="1" stroke="#1B1B1Bff" />
<path d="M110.26675545283355,-161.30103376563505 L114.4105174236926,-235.4839328050793" stroke-width="1" stroke="#A7A7A7ff" />
<path d="M110.26675545283355,-161.30103376563505 L340.8120865769337,-221.74761539575877" stroke-width="1" stroke="#CECECEff" />
<path d="M110.26675545283355,-161.30103376563505 L353.5613027979596,-198.62787573004982" stroke-width="1" stroke="#979797ff" />
<path d="M110.26675545283355,-161.30103376563505 L290.40411899903853,-345.38100110084844" stroke-width="1" stroke="#C4C4C4ff" />
<path d="M110.26675545283355,-161.30103376563505 L23.67728008159764,-223.07527223713478" stroke-width="1" stroke="#F1F1F1ff" />
<path d="M110.26675545283355,-161.30103376563505 L20.914389325736327,-79.51741612641695" stroke-width="1" stroke="#000000ff" />
<path d="M157.5120561308932,-11.160338095082967 L340.8120865769337,-221.74761539575877" stroke-width="1" stroke="#F7F7F7ff" />
<path d="M157.5120561308932,-11.160338095082967 L118.4528440623601,-183.71492374198542" stroke-width="1" stroke="#BABABAff" />
<path d="M157.5120561308932,-11.160338095082967 L234.6117223463767,-197.718636842857" stroke-width="1" stroke="#DCDCDCff" />
<path d="M157.5120561308932,-11.160338095082967 L20.914389325736327,-79.51741612641695" stroke-width="1" stroke="#999999ff" />
<path d="M157.5120561308932,-11.160338095082967 L143.82384646736267,-139.37996068278" stroke-width="1" stroke="#717171ff" />
<path d="M137.13232604233383,-221.2888595749888 L116.609030539423,-300.8116937270986" stroke-width="1" stroke="#A6A6A6ff" />
<path d="M137.13232604233383,-221.2888595749888 L257.7041697632521,-153.39505243862544" stroke-width="1" stroke="#D0D0D0ff" />
<path d="M137.13232604233383,-221.2888595749888 L48.392854575853896,-242.0434060029401" stroke-width="1" stroke="#EFEFEFff" />
<path d="M137.13232604233383,-221.2888595749888 L353.5613027979596,-198.62787573004982" stroke-width="1" stroke="#BDBDBDff" />
<path d="M62.18358545965006,-356.3042475808088 L289.931700842489,-155.73561328432208" stroke-width="1" stroke="#676767ff" />
<path d="M62.18358545965006,-356.3042475808088 L20.914389325736327,-79.51741612641695" stroke-width="1" stroke="#B7B7B7ff" />
<path d="M62.18358545965006,-356.3042475808088 L9.485523618060743,-105.61877720351998" stroke-width="1" stroke="#BFBFBFff" />
<path d="M62.18358545965006,-356.3042475808088 L143.82384646736267,-139.37996068278" stroke-width="1" stroke="#EAEAEAff" />
<path d="M62.18358545965006,-356.3042475808088 L31.85030668896749,-342.0492859010785" stroke-width="1" stroke="#D7D7D7ff" />
<path d="M62.18358545965006,-356.3042475808088 L20.073654530966365,-360.6646977590008" stroke-width="1" stroke="#DCDCDCff" />
<path d="M62.18358545965006,-356.3042475808088 L121.69145628735455,-294.6512136742427" stroke-width="1" stroke="#050505ff" />
<path d="M290.40411899903853,-345.38100110084844 L234.6117223463767,-197.718636842857" stroke-width="1" stroke="#070707ff" />
<path d="M290.40411899903853,-345.38100110084844 L207.0641328419157,-343.8588834118746" stroke-width="1" stroke="#131313ff" />
<path d="M290.40411899903853,-345.38100110084844 L23.67728008159764,-223.07527223713478" stroke-width="1" stroke="#EEEEEEff" />
<path d="M290.40411899903853,-345.38100110084844 L20.073654530966365,-360.6646977590008" stroke-width="1" stroke="#2C2C2Cff" />
<path d="M290.40411899903853,-345.38100110084844 L196.21598554988694,-361.79683955752125" stroke-width="1" stroke="#151515ff" />
<path d="M290.40411899903853,-345.38100110084844 L189.8103024564092,-42.67271188913697" stroke-width="1" stroke="#919191ff" />
<path d="M233.80005106800783,-366.3212626263572 L257.7041697632521,-153.39505243862544" stroke-width="1" stroke="#929292ff" />
<path d="M233.80005106800783,-366.3212626263572 L196.21598554988694,-361.79683955752125" stroke-width="1" stroke="#666666ff" />
<path d="M233.80005106800783,-366.3212626263572 L353.5613027979596,-198.62787573004982" stroke-width="1" stroke="#505050ff" />
<path d="M233.80005106800783,-366.3212626263572 L92.23160939087296,-376.6795166589423" stroke-width="1" stroke="#9A9A9Aff" />
<path d="M233.80005106800783,-366.3212626263572 L338.2164431084821,-330.2990003319727" stroke-width="1" stroke="#161616ff" />
<path d="M233.80005106800783,-366.3212626263572 L234.6117223463767,-197.718636842857" stroke-width="1" stroke="#D2D2D2ff" />
<path d="M239.9442193329367,-190.71647383243877 L363.6613468986959,-174.41596609129385" stroke-width="1" stroke="#797979ff" />
<path d="M239.9442193329367,-190.71647383243877 L48.392854575853896,-242.0434060029401" stroke-width="1" stroke="#121212ff" />
<path d="M239.9442193329367,-190.71647383243877 L159.70011050148466,-213.5469520659658" stroke-width="1" stroke="#D8D8D8ff" />
<path d="M239.9442193329367,-190.71647383243877 L372.09966848077295,-185.22034290950532" stroke-width="1" stroke="#E1E1E1ff" />
<path d="M108.03292024059346,-63.57940911018019 L362.39831417612356,-275.38269872103587" stroke-width="1" stroke="#A3A3A3ff" />
<path d="M108.03292024059346,-63.57940911018019 L140.07822293719352,-4.421166557489986" stroke-width="1" stroke="#121212ff" />
<path d="M108.03292024059346,-63.57940911018019 L345.23107881751895,-390.43111902104044" stroke-width="1" stroke="#C7C7C7ff" />
<path d="M108.03292024059346,-63.57940911018019 L46.859879619762346,-148.01907037843054" stroke-width="1" stroke="#E0E0E0ff" />
<path d="M108.03292024059346,-63.57940911018019 L9.485523618060743,-105.61877720351998" stroke-width="1" stroke="#111111ff" />
<path d="M108.03292024059346,-63.57940911018019 L289.9542707441109,-33.64434057065311" stroke-width="1" stroke="#1A1A1Aff" />
<path d="M108.03292024059346,-63.57940911018019 L372.09966848077295,-185.22034290950532" stroke-width="1" stroke="#070707ff" />
<path d="M92.23160939087296,-376.6795166589423 L20.073654530966365,-360.6646977590008" stroke-width="1" stroke="#686868ff" />
<path d="M92.23160939087296,-376.6795166589423 L192.76602056494036,-330.38940880209793" stroke-width="1" stroke="#9D9D9Dff" />
<path d="M92.23160939087296,-376.6795166589423 L247.26081284563355,-315.3366074646819" stroke-width="1" stroke="#BCBCBCff" />
<path d="M92.23160939087296,-376.6795166589423 L73.54787478676302,-149.60907675061955" stroke-width="1" stroke="#C1C1C1ff" />
<path d="M360.4257267476501,-15.521811057916368 L363.6613468986959,-174.41596609129385" stroke-width="1" stroke="#F5F5F5ff" />
<path d="M360.4257267476501,-15.521811057916368 L207.84258345135208,-92.89121372482106" stroke-width="1" stroke="#808080ff" />
<path d="M360.4257267476501,-15.521811057916368 L318.1195676901086,-384.0836505750615" stroke-width="1" stroke="#121212ff" />
<path d="M360.4257267476501,-15.521811057916368 L69.43946952914332,-357.5568478628565" stroke-width="1" stroke="#1A1A1Aff" />
<path d="M360.4257267476501,-15.521811057916368 L362.39831417612356,-275.38269872103587" stroke-width="1" stroke="#323232ff" />
<path d="M360.4257267476501,-15.521811057916368 L159.70011050148466,-213.5469520659658" stroke-width="1" stroke="#F2F2F2ff" />
<path d="M248.22049228541775,-0.8934617093670383 L289.931700842489,-155.73561328432208" stroke-width="1" stroke="#CCCCCCff" />
<path d="M248.22049228541775,-0.8934617093670383 L257.7041697632521,-153.39505243862544" stroke-width="1" stroke="#8D8D8Dff" />
<path d="M248.22049228541775,-0.8934617093670383 L266.1227561681661,-136.91880959534822" stroke-width="1" stroke="#303030ff" />
<path d="M248.22049228541775,-0.8934617093670383 L159.70011050148466,-213.5469520659658" stroke-width="1" stroke="#C6C6C6ff" />
<path d="M248.22049228541775,-0.8934617093670383 L289.9542707441109,-33.64434057065311" stroke-width="1" stroke="#DDDDDDff" />
<path d="M266.1227561681661,-136.91880959534822 L48.392854575853896,-242.0434060029401" stroke-width="1" stroke="#6A6A6Aff" />
<path d="M266.1227561681661,-136.91880959534822 L282.3030238143128,-214.05536306735843" stroke-width="1" stroke="#CBCBCBff" />
<path d="M266.1227561681661,-136.91880959534822 L372.09966848077295,-185.22034290950532" stroke-width="1" stroke="#C9C9C9ff" />
<path d="M266.1227561681661,-136.91880959534822 L159.70011050148466,-213.5469520659658" stroke-width="1" stroke="#272727ff" />
<path d="M266.1227561681661,-136.91880959534822 L353.5613027979596,-198.62787573004982" stroke-width="1" stroke="#0A0A0Aff" />
<path d="M289.931700842489,-155.73561328432208 L362.39831417612356,-275.38269872103587" stroke-width="1" stroke="#2A2A2Aff" />
<path d="M289.931700842489,-155.73561328432208 L282.3030238143128,-214.05536306735843" stroke-width="1" stroke="#DEDEDEff" />
<path d="M289.931700842489,-155.73561328432208 L289.9542707441109,-33.64434057065311" stroke-width="1" stroke="#3B3B3Bff" />
<path d="M289.931700842489,-155.73561328432208 L234.6117223463767,-197.718636842857" stroke-width="1" stroke="#E4E4E4ff" />
<path d="M289.931700842489,-155.73561328432208 L196.21598554988694,-361.79683955752125" stroke-width="1" stroke="#CFCFCFff" />
<path d="M289.931700842489,-155.73561328432208 L194.9172906021055,-260.0728521001391" stroke-width="1" stroke="#8D8D8Dff" />
<path d="M118.4528440623601,-183.71492374198542 L207.84258345135208,-92.89121372482106" stroke-width="1" stroke="#313131ff" />
<path d="M118.4528440623601,-183.71492374198542 L258.2603679283113,-356.15626402771505" stroke-width="1" stroke="#333333ff" />
<path d="M118.4528440623601,-183.71492374198542 L9.485523618060743,-105.61877720351998" stroke-width="1" stroke="#1E1E1Eff" />
<path d="M118.4528440623601,-183.71492374198542 L282.3030238143128,-214.05536306735843" stroke-width="1" stroke="#C6C6C6ff" />
<path d="M118.4528440623601,-183.71492374198542 L345.23107881751895,-390.43111902104044" stroke-width="1" stroke="#B2B2B2ff" />
<path d="M118.4528440623601,-183.71492374198542 L62.73613409148262,-358.4851928761703" stroke-width="1" stroke="#212121ff" />
<path d="M118.4528440623601,-183.71492374198542 L301.31925996791205,-192.21405470008253" stroke-width="1" stroke="#E7E7E7ff" />
<path d="M118.4528440623601,-183.71492374198542 L17.376863588798308,-236.09498475098576" stroke-width="1" stroke="#C5C5C5ff" />
<path d="M118.4528440623601,-183.71492374198542 L372.09966848077295,-185.22034290950532" stroke-width="1" stroke="#B6B6B6ff" />
<path d="M118.4528440623601,-183.71492374198542 L353.5613027979596,-198.62787573004982" stroke-width="1" stroke="#D9D9D9ff" />
<path d="M338.2164431084821,-330.2990003319727 L20.914389325736327,-79.51741612641695" stroke-width="1" stroke="#A8A8A8ff" />
<path d="M338.2164431084821,-330.2990003319727 L318.1195676901086,-384.0836505750615" stroke-width="1" stroke="#8A8A8Aff" />
<path d="M338.2164431084821,-330.2990003319727 L143.82384646736267,-139.37996068278" stroke-width="1" stroke="#767676ff" />
<path d="M338.2164431084821,-330.2990003319727 L73.54787478676302,-149.60907675061955" stroke-width="1" stroke="#EDEDEDff" />
<path d="M338.2164431084821,-330.2990003319727 L257.7041697632521,-153.39505243862544" stroke-width="1" stroke="#D6D6D6ff" />
<path d="M338.2164431084821,-330.2990003319727 L189.8103024564092,-42.67271188913697" stroke-width="1" stroke="#DBDBDBff" />
<path d="M46.859879619762346,-148.01907037843054 L46.859879619762346,-148.01907037843054" stroke-width="1" stroke="#D8D8D8ff" />
<path d="M46.859879619762346,-148.01907037843054 L363.6613468986959,-174.41596609129385" stroke-width="1" stroke="#262626ff" />
<path d="M46.859879619762346,-148.01907037843054 L207.0641328419157,-343.8588834118746" stroke-width="1" stroke="#F2F2F2ff" />
<path d="M46.859879619762346,-148.01907037843054 L114.4105174236926,-235.4839328050793" stroke-width="1" stroke="#838383ff" />
<path d="M46.859879619762346,-148.01907037843054 L140.07822293719352,-4.421166557489986" stroke-width="1" stroke="#F6F6F6ff" />
<path d="M46.859879619762346,-148.01907037843054 L289.9542707441109,-33.64434057065311" stroke-width="1" stroke="#0C0C0Cff" />
<path d="M46.859879619762346,-148.01907037843054 L27.468594509583212,-272.9344717436426" stroke-width="1" stroke="#D2D2D2ff" />
<path d="M62.73613409148262,-358.4851928761703 L62.73613409148262,-358.4851928761703" stroke-width="1" stroke="#CBCBCBff" />
<path d="M62.73613409148262,-358.4851928761703 L20.914389325736327,-79.51741612641695" stroke-width="1" stroke="#E4E4E4ff" />
<path d="M62.73613409148262,-358.4851928761703 L340.8120865769337,-221.74761539575877" stroke-width="1" stroke="#969696ff" />
<path d="M62.73613409148262,-358.4851928761703 L31.85030668896749,-342.0492859010785" stroke-width="1" stroke="#000000ff" />
<path d="M62.73613409148262,-358.4851928761703 L257.7041697632521,-153.39505243862544" stroke-width="1" stroke="#D4D4D4ff" />
<path d="M62.73613409148262,-358.4851928761703 L121.69145628735455,-294.6512136742427" stroke-width="1" stroke="#171717ff" />
<path d="M61.65791774152307,-66.74555886051311 L363.6613468986959,-174.41596609129385" stroke-width="1" stroke="#121212ff" />
<path d="M61.65791774152307,-66.74555886051311 L192.76602056494036,-330.38940880209793" stroke-width="1" stroke="#636363ff" />
<path d="M61.65791774152307,-66.74555886051311 L301.31925996791205,-192.21405470008253" stroke-width="1" stroke="#2D2D2Dff" />
<path d="M61.65791774152307,-66.74555886051311 L140.07822293719352,-4.421166557489986" stroke-width="1" stroke="#767676ff" />
<path d="M61.65791774152307,-66.74555886051311 L30.93200835986125,-315.25895489347147" stroke-width="1" stroke="#979797ff" />
<path d="M61.65791774152307,-66.74555886051311 L345.23107881751895,-390.43111902104044" stroke-width="1" stroke="#787878ff" />
<path d="M74.1449737859273,-63.72114764878138 L192.76602056494036,-330.38940880209793" stroke-width="1" stroke="#A8A8A8ff" />
<path d="M74.1449737859273,-63.72114764878138 L116.609030539423,-300.8116937270986" stroke-width="1" stroke="#B0B0B0ff" />
<path d="M74.1449737859273,-63.72114764878138 L23.67728008159764,-223.07527223713478" stroke-width="1" stroke="#1D1D1Dff" />
<path d="M74.1449737859273,-63.72114764878138 L69.43946952914332,-357.5568478628565" stroke-width="1" stroke="#6A6A6Aff" />
<path d="M74.1449737859273,-63.72114764878138 L301.31925996791205,-192.21405470008253" stroke-width="1" stroke="#F9F9F9ff" />
<path d="M74.1449737859273,-63.72114764878138 L194.9172906021055,-260.0728521001391" stroke-width="1" stroke="#878787ff" />
<path d="M74.1449737859273,-63.72114764878138 L9.485523618060743,-105.61877720351998" stroke-width="1" stroke="#7C7C7Cff" />
<path d="M74.1449737859273,-63.72114764878138 L362.39831417612356,-275.38269872103587" stroke-width="1" stroke="#303030ff" />
<path d="M74.1449737859273,-63.72114764878138 L340.8120865769337,-221.74761539575877" stroke-width="1" stroke="#747474ff" />
<path d="M31.85030668896749,-342.0492859010785 L9.485523618060743,-105.61877720351998" stroke-width="1" stroke="#717171ff" />
<path d="M31.85030668896749,-342.0492859010785 L282.3030238143128,-214.05536306735843" stroke-width="1" stroke="#3B3B3Bff" />
<path d="M31.85030668896749,-342.0492859010785 L73.54787478676302,-149.60907675061955" stroke-width="1" stroke="#282828ff" />
<path d="M31.85030668896749,-342.0492859010785 L311.23367679806057,-275.09435060629255" stroke-width="1" stroke="#727272ff" />
<path d="M31.85030668896749,-342.0492859010785 L301.31925996791205,-192.21405470008253" stroke-width="1" stroke="#525252ff" />
<path d="M31.85030668896749,-342.0492859010785 L394.0559949307701,-359.5438632089431" stroke-width="1" stroke="#1E1E1Eff" />
<path d="M363.6613468986959,-174.41596609129385 L143.82384646736267,-139.37996068278" stroke-width="1" stroke="#CACACAff" />
<path d="M363.6613468986959,-174.41596609129385 L207.84258345135208,-92.89121372482106" stroke-width="1" stroke="#555555ff" />
<path d="M363.6613468986959,-174.41596609129385 L394.0559949307701,-359.5438632089431" stroke-width="1" stroke="#656565ff" />
<path d="M363.6613468986959,-174.41596609129385 L345.23107881751895,-390.43111902104044" stroke-width="1" stroke="#D6D6D6ff" />
<path d="M363.6613468986959,-174.41596609129385 L353.5613027979596,-198.62787573004982" stroke-width="1" stroke="#383838ff" />
<path d="M311.23367679806057,-275.09435060629255 L20.073654530966365,-360.6646977590008" stroke-width="1" stroke="#D3D3D3ff" />
<path d="M311.23367679806057,-275.09435060629255 L159.70011050148466,-213.5469520659658" stroke-width="1" stroke="#232323ff" />
<path d="M311.23367679806057,-275.09435060629255 L340.8120865769337,-221.74761539575877" stroke-width="1" stroke="#B2B2B2ff" />
<path d="M192.76602056494036,-330.38940880209793 L207.84258345135208,-92.89121372482106" stroke-width="1" stroke="#111111ff" />
<path d="M192.76602056494036,-330.38940880209793 L140.07822293719352,-4.421166557489986" stroke-width="1" stroke="#959595ff" />
<path d="M207.84258345135208,-92.89121372482106 L196.21598554988694,-361.79683955752125" stroke-width="1" stroke="#5B5B5Bff" />
<path d="M207.84258345135208,-92.89121372482106 L189.8103024564092,-42.67271188913697" stroke-width="1" stroke="#6F6F6Fff" />
<path d="M116.609030539423,-300.8116937270986 L48.392854575853896,-242.0434060029401" stroke-width="1" stroke="#D4D4D4ff" />
<path d="M116.609030539423,-300.8116937270986 L257.7041697632521,-153.39505243862544" stroke-width="1" stroke="#BEBEBEff" />
<path d="M116.609030539423,-300.8116937270986 L258.2603679283113,-356.15626402771505" stroke-width="1" stroke="#707070ff" />
<path d="M116.609030539423,-300.8116937270986 L282.3030238143128,-214.05536306735843" stroke-width="1" stroke="#717171ff" />
<path d="M257.7041697632521,-153.39505243862544 L282.3030238143128,-214.05536306735843" stroke-width="1" stroke="#DDDDDDff" />
<path d="M257.7041697632521,-153.39505243862544 L140.07822293719352,-4.421166557489986" stroke-width="1" stroke="#3D3D3Dff" />
<path d="M257.7041697632521,-153.39505243862544 L9.485523618060743,-105.61877720351998" stroke-width="1" stroke="#8E8E8Eff" />
<path d="M257.7041697632521,-153.39505243862544 L20.073654530966365,-360.6646977590008" stroke-width="1" stroke="#4A4A4Aff" />
<path d="M257.7041697632521,-153.39505243862544 L69.43946952914332,-357.5568478628565" stroke-width="1" stroke="#131313ff" />
<path d="M234.6117223463767,-197.718636842857 L196.21598554988694,-361.79683955752125" stroke-width="1" stroke="#4A4A4Aff" />
<path d="M234.6117223463767,-197.718636842857 L301.31925996791205,-192.21405470008253" stroke-width="1" stroke="#A8A8A8ff" />
<path d="M23.67728008159764,-223.07527223713478 L20.914389325736327,-79.51741612641695" stroke-width="1" stroke="#787878ff" />
<path d="M23.67728008159764,-223.07527223713478 L20.073654530966365,-360.6646977590008" stroke-width="1" stroke="#323232ff" />
<path d="M196.21598554988694,-361.79683955752125 L140.07822293719352,-4.421166557489986" stroke-width="1" stroke="#C4C4C4ff" />
<path d="M196.21598554988694,-361.79683955752125 L9.485523618060743,-105.61877720351998" stroke-width="1" stroke="#171717ff" />
<path d="M196.21598554988694,-361.79683955752125 L159.70011050148466,-213.5469520659658" stroke-width="1" stroke="#F6F6F6ff" />
<path d="M301.31925996791205,-192.21405470008253 L340.8120865769337,-221.74761539575877" stroke-width="1" stroke="#585858ff" />
<path d="M301.31925996791205,-192.21405470008253 L318.1195676901086,-384.0836505750615" stroke-width="1" stroke="#5C5C5Cff" />
<path d="M301.31925996791205,-192.21405470008253 L9.485523618060743,-105.61877720351998" stroke-width="1" stroke="#3F3F3Fff" />
<path d="M301.31925996791205,-192.21405470008253 L159.70011050148466,-213.5469520659658" stroke-width="1" stroke="#7B7B7Bff" />
<path d="M301.31925996791205,-192.21405470008253 L121.69145628735455,-294.6512136742427" stroke-width="1" stroke="#A6A6A6ff" />
<path d="M20.914389325736327,-79.51741612641695 L362.39831417612356,-275.38269872103587" stroke-width="1" stroke="#EDEDEDff" />
<path d="M20.914389325736327,-79.51741612641695 L394.0559949307701,-359.5438632089431" stroke-width="1" stroke="#B5B5B5ff" />
<path d="M20.914389325736327,-79.51741612641695 L48.392854575853896,-242.0434060029401" stroke-width="1" stroke="#A0A0A0ff" />
<path d="M20.914389325736327,-79.51741612641695 L258.2603679283113,-356.15626402771505" stroke-width="1" stroke="#4D4D4Dff" />
<path d="M20.914389325736327,-79.51741612641695 L30.93200835986125,-315.25895489347147" stroke-width="1" stroke="#F8F8F8ff" />
<path d="M20.914389325736327,-79.51741612641695 L69.43946952914332,-357.5568478628565" stroke-width="1" stroke="#5A5A5Aff" />
<path d="M48.392854575853896,-242.0434060029401 L247.26081284563355,-315.3366074646819" stroke-width="1" stroke="#919191ff" />
<path d="M48.392854575853896,-242.0434060029401 L353.5613027979596,-198.62787573004982" stroke-width="1" stroke="#979797ff" />
<path d="M318.1195676901086,-384.0836505750615 L282.3030238143128,-214.05536306735843" stroke-width="1" stroke="#0A0A0Aff" />
<path d="M318.1195676901086,-384.0836505750615 L189.8103024564092,-42.67271188913697" stroke-width="1" stroke="#868686ff" />
<path d="M258.2603679283113,-356.15626402771505 L140.07822293719352,-4.421166557489986" stroke-width="1" stroke="#ECECECff" />
<path d="M258.2603679283113,-356.15626402771505 L340.8120865769337,-221.74761539575877" stroke-width="1" stroke="#9E9E9Eff" />
<path d="M258.2603679283113,-356.15626402771505 L9.485523618060743,-105.61877720351998" stroke-width="1" stroke="#1A1A1Aff" />
<path d="M258.2603679283113,-356.15626402771505 L27.468594509583212,-272.9344717436426" stroke-width="1" stroke="#E6E6E6ff" />
<path d="M194.9172906021055,-260.0728521001391 L282.3030238143128,-214.05536306735843" stroke-width="1" stroke="#252525ff" />
<path d="M194.9172906021055,-260.0728521001391 L17.376863588798308,-236.09498475098576" stroke-width="1" stroke="#636363ff" />
<path d="M194.9172906021055,-260.0728521001391 L340.8120865769337,-221.74761539575877" stroke-width="1" stroke="#373737ff" />
<path d="M247.26081284563355,-315.3366074646819 L282.3030238143128,-214.05536306735843" stroke-width="1" stroke="#3A3A3Aff" />
<path d="M247.26081284563355,-315.3366074646819 L340.8120865769337,-221.74761539575877" stroke-width="1" stroke="#B9B9B9ff" />
<path d="M247.26081284563355,-315.3366074646819 L353.5613027979596,-198.62787573004982" stroke-width="1" stroke="#7A7A7Aff" />
<path d="M9.485523618060743,-105.61877720351998 L114.4105174236926,-235.4839328050793" stroke-width="1" stroke="#585858ff" />
<path d="M9.485523618060743,-105.61877720351998 L394.0559949307701,-359.5438632089431" stroke-width="1" stroke="#AEAEAEff" />
<path d="M9.485523618060743,-105.61877720351998 L362.39831417612356,-275.38269872103587" stroke-width="1" stroke="#A1A1A1ff" />
<path d="M9.485523618060743,-105.61877720351998 L73.54787478676302,-149.60907675061955" stroke-width="1" stroke="#868686ff" />
<path d="M17.376863588798308,-236.09498475098576 L121.69145628735455,-294.6512136742427" stroke-width="1" stroke="#707070ff" />
<path d="M20.073654530966365,-360.6646977590008 L27.468594509583212,-272.9344717436426" stroke-width="1" stroke="#EEEEEEff" />
<path d="M20.073654530966365,-360.6646977590008 L114.4105174236926,-235.4839328050793" stroke-width="1" stroke="#ECECECff" />
<path d="M20.073654530966365,-360.6646977590008 L353.5613027979596,-198.62787573004982" stroke-width="1" stroke="#242424ff" />
<path d="M362.39831417612356,-275.38269872103587 L362.39831417612356,-275.38269872103587" stroke-width="1" stroke="#E1E1E1ff" />
<path d="M362.39831417612356,-275.38269872103587 L114.4105174236926,-235.4839328050793" stroke-width="1" stroke="#828282ff" />
<path d="M362.39831417612356,-275.38269872103587 L30.93200835986125,-315.25895489347147" stroke-width="1" stroke="#888888ff" />
<path d="M282.3030238143128,-214.05536306735843 L143.82384646736267,-139.37996068278" stroke-width="1" stroke="#A7A7A7ff" />
<path d="M114.4105174236926,-235.4839328050793 L73.54787478676302,-149.60907675061955" stroke-width="1" stroke="#F6F6F6ff" />
<path d="M114.4105174236926,-235.4839328050793 L289.9542707441109,-33.64434057065311" stroke-width="1" stroke="#343434ff" />
<path d="M159.70011050148466,-213.5469520659658 L73.54787478676302,-149.60907675061955" stroke-width="1" stroke="#D0D0D0ff" />
<path d="M27.468594509583212,-272.9344717436426 L30.93200835986125,-315.25895489347147" stroke-width="1" stroke="#1D1D1Dff" />
<path d="M27.468594509583212,-272.9344717436426 L121.69145628735455,-294.6512136742427" stroke-width="1" stroke="#B8B8B8ff" />
<path d="M394.0559949307701,-359.5438632089431 L345.23107881751895,-390.43111902104044" stroke-width="1" stroke="#393939ff" />
<path d="M289.9542707441109,-33.64434057065311 L30.93200835986125,-315.25895489347147" stroke-width="1" stroke="#C0C0C0ff" />
<path d="M289.9542707441109,-33.64434057065311 L73.54787478676302,-149.60907675061955" stroke-width="1" stroke="#282828ff" />
<path d="M340.8120865769337,-221.74761539575877 L353.5613027979596,-198.62787573004982" stroke-width="1" stroke="#9A9A9Aff" />
<path d="M372.09966848077295,-185.22034290950532 L372.09966848077295,-185.22034290950532" stroke-width="1" stroke="#363636ff" />
<path d="M372.09966848077295,-185.22034290950532 L30.93200835986125,-315.25895489347147" stroke-width="1" stroke="#858585ff" />
<path d="M143.82384646736267,-139.37996068278 L345.23107881751895,-390.43111902104044" stroke-width="1" stroke="#070707ff" />
<path d="M143.82384646736267,-139.37996068278 L30.93200835986125,-315.25895489347147" stroke-width="1" stroke="#1A1A1Aff" />
<path d="M30.93200835986125,-315.25895489347147 L353.5613027979596,-198.62787573004982" stroke-width="1" stroke="#4D4D4Dff" />
<path d="M345.23107881751895,-390.43111902104044 L73.54787478676302,-149.60907675061955" stroke-width="1" stroke="#B4B4B4ff" />
<circle cx="216.66236618020088" cy="-220.18520837503848" r="8.0" fill="#0B0B0Bff" stroke-width="1" stroke="black" />
<circle cx="12.40404116558036" cy="-369.31440693494613" r="8.0" fill="#6A6A6Aff" stroke-width="1" stroke="black" />
<circle cx="103.52090555319452" cy="-201.26048812421126" r="8.0" fill="#060606ff" stroke-width="1" stroke="black" />
<circle cx="350.419656453146" cy="-362.5412882159557" r="8.0" fill="#5B5B5Bff" stroke-width="1" stroke="black" />
<circle cx="379.1696330728284" cy="-47.347314426043226" r="8.0" fill="#8D8D8Dff" stroke-width="1" stroke="black" />
<circle cx="284.2068754976384" cy="-40.32633733752413" r="8.0" fill="#5F5F5Fff" stroke-width="1" stroke="black" />
<circle cx="372.49330459251166" cy="-186.25654370322758" r="8.0" fill="#E7E7E7ff" stroke-width="1" stroke="black" />
<circle cx="263.9279522852129" cy="-340.3327168916504" r="8.0" fill="#D8D8D8ff" stroke-width="1" stroke="black" />
<circle cx="116.57204436618484" cy="-28.460165772522572" r="8.0" fill="#A9A9A9ff" stroke-width="1" stroke="black" />
<circle cx="379.2705148344458" cy="-34.3763895248355" r="8.0" fill="#8D8D8Dff" stroke-width="1" stroke="black" />
<circle cx="28.646638904311537" cy="-7.666773513148106" r="8.0" fill="#474747ff" stroke-width="1" stroke="black" />
<circle cx="245.07089910886654" cy="-343.21961141748676" r="8.0" fill="#0F0F0Fff" stroke-width="1" stroke="black" />
<circle cx="14.243711505807877" cy="-235.21665920550325" r="8.0" fill="#313131ff" stroke-width="1" stroke="black" />
<circle cx="206.34173281150314" cy="-249.089818450554" r="8.0" fill="#1D1D1Dff" stroke-width="1" stroke="black" />
<circle cx="123.70282050790462" cy="-80.31846784729595" r="8.0" fill="#262626ff" stroke-width="1" stroke="black" />
<circle cx="109.39449585862424" cy="-393.48873563523114" r="8.0" fill="#7F7F7Fff" stroke-width="1" stroke="black" />
<circle cx="135.04373658688164" cy="-130.39846521508545" r="8.0" fill="#7A7A7Aff" stroke-width="1" stroke="black" />
<circle cx="75.35705995943091" cy="-122.30041216517904" r="8.0" fill="#3B3B3Bff" stroke-width="1" stroke="black" />
<circle cx="379.52406153569285" cy="-110.4887063223452" r="8.0" fill="#909090ff" stroke-width="1" stroke="black" />
<circle cx="115.7092689706681" cy="-286.38278531312824" r="8.0" fill="#252525ff" stroke-width="1" stroke="black" />
<circle cx="80.82984608048478" cy="-60.93454047819957" r="8.0" fill="#050505ff" stroke-width="1" stroke="black" />
<circle cx="128.54948382163562" cy="-151.0677994161243" r="8.0" fill="#737373ff" stroke-width="1" stroke="black" />
<circle cx="17.14499012941788" cy="-373.0699610860204" r="8.0" fill="#868686ff" stroke-width="1" stroke="black" />
<circle cx="223.22321746650485" cy="-142.67442712576278" r="8.0" fill="#A7A7A7ff" stroke-width="1" stroke="black" />
<circle cx="316.3772382859166" cy="-193.65088749060448" r="8.0" fill="#484848ff" stroke-width="1" stroke="black" />
<circle cx="228.66254312439008" cy="-185.09908423771094" r="8.0" fill="#626262ff" stroke-width="1" stroke="black" />
<circle cx="215.22885734955355" cy="-52.90907369246787" r="8.0" fill="#F4F4F4ff" stroke-width="1" stroke="black" />
<circle cx="370.1651422513167" cy="-286.0575442633461" r="8.0" fill="#5A5A5Aff" stroke-width="1" stroke="black" />
<circle cx="65.56089395733942" cy="-100.42845614289311" r="8.0" fill="#CBCBCBff" stroke-width="1" stroke="black" />
<circle cx="34.56467705527979" cy="-109.03513271762625" r="8.0" fill="#D7D7D7ff" stroke-width="1" stroke="black" />
<circle cx="310.77193393331083" cy="-78.15084774071433" r="8.0" fill="#313131ff" stroke-width="1" stroke="black" />
<circle cx="27.63691245426676" cy="-256.69349078153346" r="8.0" fill="#878787ff" stroke-width="1" stroke="black" />
<circle cx="373.9536388315958" cy="-71.48387773015408" r="8.0" fill="#D7D7D7ff" stroke-width="1" stroke="black" />
<circle cx="70.42425474716856" cy="-253.89638381138195" r="8.0" fill="#CACACAff" stroke-width="1" stroke="black" />
<circle cx="310.2818389079767" cy="-342.978822522828" r="8.0" fill="#0A0A0Aff" stroke-width="1" stroke="black" />
<circle cx="272.53334795303317" cy="-91.84137840115598" r="8.0" fill="#DADADAff" stroke-width="1" stroke="black" />
<circle cx="66.98588484917462" cy="-38.444234184229444" r="8.0" fill="#D2D2D2ff" stroke-width="1" stroke="black" />
<circle cx="73.66996773497077" cy="-349.9593607109606" r="8.0" fill="#4A4A4Aff" stroke-width="1" stroke="black" />
<circle cx="133.93875853036366" cy="-371.0343986974995" r="8.0" fill="#686868ff" stroke-width="1" stroke="black" />
<circle cx="353.4217575252891" cy="-116.55277718636583" r="8.0" fill="#E3E3E3ff" stroke-width="1" stroke="black" />
<circle cx="376.6341470210492" cy="-396.92037787310585" r="8.0" fill="#949494ff" stroke-width="1" stroke="black" />
<circle cx="187.40257789298954" cy="-240.43785495333378" r="8.0" fill="#B7B7B7ff" stroke-width="1" stroke="black" />
<circle cx="110.26675545283355" cy="-161.30103376563505" r="8.0" fill="#787878ff" stroke-width="1" stroke="black" />
<circle cx="157.5120561308932" cy="-11.160338095082967" r="8.0" fill="#B7B7B7ff" stroke-width="1" stroke="black" />
<circle cx="137.13232604233383" cy="-221.2888595749888" r="8.0" fill="#6F6F6Fff" stroke-width="1" stroke="black" />
<circle cx="62.18358545965006" cy="-356.3042475808088" r="8.0" fill="#F2F2F2ff" stroke-width="1" stroke="black" />
<circle cx="290.40411899903853" cy="-345.38100110084844" r="8.0" fill="#656565ff" stroke-width="1" stroke="black" />
<circle cx="233.80005106800783" cy="-366.3212626263572" r="8.0" fill="#3F3F3Fff" stroke-width="1" stroke="black" />
<circle cx="239.9442193329367" cy="-190.71647383243877" r="8.0" fill="#BFBFBFff" stroke-width="1" stroke="black" />
<circle cx="108.03292024059346" cy="-63.57940911018019" r="8.0" fill="#D4D4D4ff" stroke-width="1" stroke="black" />
<circle cx="92.23160939087296" cy="-376.6795166589423" r="8.0" fill="#727272ff" stroke-width="1" stroke="black" />
<circle cx="360.4257267476501" cy="-15.521811057916368" r="8.0" fill="#8E8E8Eff" stroke-width="1" stroke="black" />
<circle cx="248.22049228541775" cy="-0.8934617093670383" r="8.0" fill="#EAEAEAff" stroke-width="1" stroke="black" />
<circle cx="266.1227561681661" cy="-136.91880959534822" r="8.0" fill="#2A2A2Aff" stroke-width="1" stroke="black" />
<circle cx="289.931700842489" cy="-155.73561328432208" r="8.0" fill="#7A7A7Aff" stroke-width="1" stroke="black" />
<circle cx="118.4528440623601" cy="-183.71492374198542" r="8.0" fill="#A7A7A7ff" stroke-width="1" stroke="black" />
<circle cx="338.2164431084821" cy="-330.2990003319727" r="8.0" fill="#A4A4A4ff" stroke-width="1" stroke="black" />
<circle cx="46.859879619762346" cy="-148.01907037843054" r="8.0" fill="#9B9B9Bff" stroke-width="1" stroke="black" />
<circle cx="62.73613409148262" cy="-358.4851928761703" r="8.0" fill="#BCBCBCff" stroke-width="1" stroke="black" />
<circle cx="61.65791774152307" cy="-66.74555886051311" r="8.0" fill="#353535ff" stroke-width="1" stroke="black" />
<circle cx="74.1449737859273" cy="-63.72114764878138" r="8.0" fill="#E7E7E7ff" stroke-width="1" stroke="black" />
<circle cx="31.85030668896749" cy="-342.0492859010785" r="8.0" fill="#262626ff" stroke-width="1" stroke="black" />
<circle cx="363.6613468986959" cy="-174.41596609129385" r="8.0" fill="#454545ff" stroke-width="1" stroke="black" />
<circle cx="311.23367679806057" cy="-275.09435060629255" r="8.0" fill="#B8B8B8ff" stroke-width="1" stroke="black" />
<circle cx="192.76602056494036" cy="-330.38940880209793" r="8.0" fill="#787878ff" stroke-width="1" stroke="black" />
<circle cx="207.84258345135208" cy="-92.89121372482106" r="8.0" fill="#B4B4B4ff" stroke-width="1" stroke="black" />
<circle cx="116.609030539423" cy="-300.8116937270986" r="8.0" fill="#787878ff" stroke-width="1" stroke="black" />
<circle cx="257.7041697632521" cy="-153.39505243862544" r="8.0" fill="#393939ff" stroke-width="1" stroke="black" />
<circle cx="234.6117223463767" cy="-197.718636842857" r="8.0" fill="#393939ff" stroke-width="1" stroke="black" />
<circle cx="207.0641328419157" cy="-343.8588834118746" r="8.0" fill="#989898ff" stroke-width="1" stroke="black" />
<circle cx="23.67728008159764" cy="-223.07527223713478" r="8.0" fill="#EEEEEEff" stroke-width="1" stroke="black" />
<circle cx="196.21598554988694" cy="-361.79683955752125" r="8.0" fill="#CCCCCCff" stroke-width="1" stroke="black" />
<circle cx="301.31925996791205" cy="-192.21405470008253" r="8.0" fill="#646464ff" stroke-width="1" stroke="black" />
<circle cx="20.914389325736327" cy="-79.51741612641695" r="8.0" fill="#F2F2F2ff" stroke-width="1" stroke="black" />
<circle cx="48.392854575853896" cy="-242.0434060029401" r="8.0" fill="#474747ff" stroke-width="1" stroke="black" />
<circle cx="318.1195676901086" cy="-384.0836505750615" r="8.0" fill="#535353ff" stroke-width="1" stroke="black" />
<circle cx="258.2603679283113" cy="-356.15626402771505" r="8.0" fill="#191919ff" stroke-width="1" stroke="black" />
<circle cx="194.9172906021055" cy="-260.0728521001391" r="8.0" fill="#F0F0F0ff" stroke-width="1" stroke="black" />
<circle cx="247.26081284563355" cy="-315.3366074646819" r="8.0" fill="#A6A6A6ff" stroke-width="1" stroke="black" />
<circle cx="9.485523618060743" cy="-105.61877720351998" r="8.0" fill="#747474ff" stroke-width="1" stroke="black" />
<circle cx="17.376863588798308" cy="-236.09498475098576" r="8.0" fill="#8C8C8Cff" stroke-width="1" stroke="black" />
<circle cx="20.073654530966365" cy="-360.6646977590008" r="8.0" fill="#CACACAff" stroke-width="1" stroke="black" />
<circle cx="362.39831417612356" cy="-275.38269872103587" r="8.0" fill="#343434ff" stroke-width="1" stroke="black" />
<circle cx="282.3030238143128" cy="-214.05536306735843" r="8.0" fill="#414141ff" stroke-width="1" stroke="black" />
<circle cx="114.4105174236926" cy="-235.4839328050793" r="8.0" fill="#4C4C4Cff" stroke-width="1" stroke="black" />
<circle cx="159.70011050148466" cy="-213.5469520659658" r="8.0" fill="#858585ff" stroke-width="1" stroke="black" />
<circle cx="189.8103024564092" cy="-42.67271188913697" r="8.0" fill="#DBDBDBff" stroke-width="1" stroke="black" />
<circle cx="140.07822293719352" cy="-4.421166557489986" r="8.0" fill="#8E8E8Eff" stroke-width="1" stroke="black" />
<circle cx="27.468594509583212" cy="-272.9344717436426" r="8.0" fill="#848484ff" stroke-width="1" stroke="black" />
<circle cx="394.0559949307701" cy="-359.5438632089431" r="8.0" fill="#000000ff" stroke-width="1" stroke="black" />
<circle cx="289.9542707441109" cy="-33.64434057065311" r="8.0" fill="#F5F5F5ff" stroke-width="1" stroke="black" />
<circle cx="340.8120865769337" cy="-221.74761539575877" r="8.0" fill="#F6F6F6ff" stroke-width="1" stroke="black" />
<circle cx="372.09966848077295" cy="-185.22034290950532" r="8.0" fill="#E6E6E6ff" stroke-width="1" stroke="black" />
<circle cx="143.82384646736267" cy="-139.37996068278" r="8.0" fill="#ACACACff" stroke-width="1" stroke="black" />
<circle cx="30.93200835986125" cy="-315.25895489347147" r="8.0" fill="#090909ff" stroke-width="1" stroke="black" />
<circle cx="69.43946952914332" cy="-357.5568478628565" r="8.0" fill="#626262ff" stroke-width="1" stroke="black" />
<circle cx="345.23107881751895" cy="-390.43111902104044" r="8.0" fill="#515151ff" stroke-width="1" stroke="black" />
<circle cx="353.5613027979596" cy="-198.62787573004982" r="8.0" fill="#E6E6E6ff" stroke-width="1" stroke="black" />
<circle cx="121.69145628735455" cy="-294.6512136742427" r="8.0" fill="#939393ff" stroke-width="1" stroke="black" />
<circle cx="73.54787478676302" cy="-149.60907675061955" r="8.0" fill="#353535ff" stroke-width="1" stroke="black" />
</svg>