<?xml version="1.0" encoding="UTF-8"?>
<svg xmlns="http://www.w3.org/2000/svg" xmlns:xlink="http://www.w3.org/1999/xlink"
     width="400" height="400" viewBox="0 -400 400 400">
<defs>
</defs>
<circle cx="40.0" cy="-40.0" r="8.0" fill="#6A6A6Aff" stroke-width="1" stroke="black" />
<circle cx="40.0" cy="-146.66666666666669" r="8.0" fill="#BFBFBFff" stroke-width="1" stroke="black" />
<circle cx="40.0" cy="-253.33333333333331" r="8.0" fill="#9D9D9Dff" stroke-width="1" stroke="black" />
<circle cx="40.0" cy="-360.0" r="8.0" fill="#858585ff" stroke-width="1" stroke="black" />
<circle cx="360.0" cy="-40.0" r="8.0" fill="#1C1C1Cff" stroke-width="1" stroke="black" />
<circle cx="360.0" cy="-56.84210526315789" r="8.0" fill="#6F6F6Fff" stroke-width="1" stroke="black" />
<circle cx="360.0" cy="-73.6842105263158" r="8.0" fill="#F7F7F7ff" stroke-width="1" stroke="black" />
<circle cx="360.0" cy="-90.52631578947368" r="8.0" fill="#B5B5B5ff" stroke-width="1" stroke="black" />
<circle cx="360.0" cy="-107.36842105263158" r="8.0" fill="#BBBBBBff" stroke-width="1" stroke="black" />
<circle cx="360.0" cy="-124.21052631578947" r="8.0" fill="#181818ff" stroke-width="1" stroke="black" />
<circle cx="360.0" cy="-141.05263157894737" r="8.0" fill="#BBBBBBff" stroke-width="1" stroke="black" />
<circle cx="360.0" cy="-157.89473684210526" r="8.0" fill="#575757ff" stroke-width="1" stroke="black" />
<circle cx="360.0" cy="-174.73684210526318" r="8.0" fill="#404040ff" stroke-width="1" stroke="black" />
<circle cx="360.0" cy="-191.57894736842107" r="8.0" fill="#080808ff" stroke-width="1" stroke="black" />
<circle cx="360.0" cy="-208.42105263157893" r="8.0" fill="#A3A3A3ff" stroke-width="1" stroke="black" />
<circle cx="360.0" cy="-225.26315789473688" r="8.0" fill="#A7A7A7ff" stroke-width="1" stroke="black" />
<circle cx="360.0" cy="-242.10526315789474" r="8.0" fill="#494949ff" stroke-width="1" stroke="black" />
<circle cx="360.0" cy="-258.94736842105266" r="8.0" fill="#4D4D4Dff" stroke-width="1" stroke="black" />
<circle cx="360.0" cy="-275.7894736842105" r="8.0" fill="#242424ff" stroke-width="1" stroke="black" />
<circle cx="360.0" cy="-292.63157894736844" r="8.0" fill="#343434ff" stroke-width="1" stroke="black" />
<circle cx="360.0" cy="-309.4736842105263" r="8.0" fill="#222222ff" stroke-width="1" stroke="black" />
<circle cx="360.0" cy="-326.3157894736842" r="8.0" fill="#A3A3A3ff" stroke-width="1" stroke="black" />
<circle cx="360.0" cy="-343.1578947368421" r="8.0" fill="#AAAAAAff" stroke-width="1" stroke="black" />
<circle cx="360.0" cy="-360.0" r="8.0" fill="#B5B5B5ff" stroke-width="1" stroke="black" />
</svg>