<?xml version="1.0" encoding="UTF-8"?>
<svg xmlns="http://www.w3.org/2000/svg" xmlns:xlink="http://www.w3.org/1999/xlink"
     width="200" height="200" viewBox="0 -200 200 200">
<defs>
</defs>
<circle cx="100.59720489739465" cy="-100.42904664498951" r="6.0" fill="#A1A1A1ff" stroke-width="1" stroke="black" />
<circle cx="148.0766176942558" cy="-121.3636695762084" r="6.0" fill="#B2B2B2ff" stroke-width="1" stroke="black" />
<circle cx="21.79473604150799" cy="-64.44854483725952" r="6.0" fill="#919191ff" stroke-width="1" stroke="black" />
<circle cx="120.01927063825708" cy="-4.829485643536224" r="6.0" fill="#353535ff" stroke-width="1" stroke="black" />
<circle cx="4.672143672623741" cy="-110.9269531427041" r="6.0" fill="#DEDEDEff" stroke-width="1" stroke="black" />
<circle cx="19.797111288207248" cy="-9.44005953391498" r="6.0" fill="#F2F2F2ff" stroke-width="1" stroke="black" />
<circle cx="129.57075269864134" cy="-196.99533846103316" r="6.0" fill="#1F1F1Fff" stroke-width="1" stroke="black" />
<circle cx="191.0306399464557" cy="-164.77159637786545" r="6.0" fill="#404040ff" stroke-width="1" stroke="black" />
<circle cx="70.07839777685108" cy="-113.63952012591282" r="6.0" fill="#D6D6D6ff" stroke-width="1" stroke="black" />
<circle cx="91.83469269557732" cy="-25.932275382129433" r="6.0" fill="#1F1F1Fff" stroke-width="1" stroke="black" />
<circle cx="198.08062994144632" cy="-79.458642826235" r="6.0" fill="#171717ff" stroke-width="1" stroke="black" />
<circle cx="111.90481023161985" cy="-30.571300832751767" r="6.0" fill="#1B1B1Bff" stroke-width="1" stroke="black" />
<circle cx="7.252290100593739" cy="-66.1520920208145" r="6.0" fill="#EFEFEFff" stroke-width="1" stroke="black" />
<circle cx="71.55398348223423" cy="-159.75580621184753" r="6.0" fill="#191919ff" stroke-width="1" stroke="black" />
<circle cx="176.8710308807067" cy="-102.51997183677481" r="6.0" fill="#292929ff" stroke-width="1" stroke="black" />
<circle cx="53.57403449255966" cy="-133.1097774852952" r="6.0" fill="#C5C5C5ff" stroke-width="1" stroke="black" />
<circle cx="170.51425650341457" cy="-87.17306664982473" r="6.0" fill="#3E3E3Eff" stroke-width="1" stroke="black" />
<circle cx="137.48965702044205" cy="-106.8921751672301" r="6.0" fill="#383838ff" stroke-width="1" stroke="black" />
<circle cx="149.58072336730518" cy="-143.45339009740593" r="6.0" fill="#999999ff" stroke-width="1" stroke="black" />
<circle cx="148.64550701483174" cy="-155.47945555102052" r="6.0" fill="#7A7A7Aff" stroke-width="1" stroke="black" />
<circle cx="147.1961140109984" cy="-107.71409989970732" r="6.0" fill="#B8B8B8ff" stroke-width="1" stroke="black" />
<circle cx="7.318251798984865" cy="-143.4997195134146" r="6.0" fill="#545454ff" stroke-width="1" stroke="black" />
<circle cx="8.341390280311845" cy="-166.3931688517086" r="6.0" fill="#F3F3F3ff" stroke-width="1" stroke="black" />
<circle cx="161.2174520253278" cy="-84.72408403659246" r="6.0" fill="#898989ff" stroke-width="1" stroke="black" />
<circle cx="52.24175936637281" cy="-153.82369279488245" r="6.0" fill="#4F4F4Fff" stroke-width="1" stroke="black" />
<circle cx="55.93277596474437" cy="-36.637009429024815" r="6.0" fill="#A8A8A8ff" stroke-width="1" stroke="black" />
<circle cx="38.87064020096085" cy="-199.71329772878352" r="6.0" fill="#8E8E8Eff" stroke-width="1" stroke="black" />
<circle cx="18.501024207443372" cy="-88.2800489942561" r="6.0" fill="#838383ff" stroke-width="1" stroke="black" />
<circle cx="61.468742232126104" cy="-128.3545192559791" r="6.0" fill="#626262ff" stroke-width="1" stroke="black" />
<circle cx="115.26489425597444" cy="-52.2295415886294" r="6.0" fill="#474747ff" stroke-width="1" stroke="black" />
<circle cx="195.5484803449686" cy="-133.64622355594736" r="6.0" fill="#292929ff" stroke-width="1" stroke="black" />
<circle cx="196.15619681349676" cy="-184.94159729971443" r="6.0" fill="#B0B0B0ff" stroke-width="1" stroke="black" />
<circle cx="163.54611181682435" cy="-119.118984745425" r="6.0" fill="#6F6F6Fff" stroke-width="1" stroke="black" />
<circle cx="130.18583578928872" cy="-62.65805185360476" r="6.0" fill="#E4E4E4ff" stroke-width="1" stroke="black" />
<circle cx="57.85837160176588" cy="-20.362159919640852" r="6.0" fill="#8A8A8Aff" stroke-width="1" stroke="black" />
<circle cx="143.4424075495157" cy="-2.6773057707667913" r="6.0" fill="#888888ff" stroke-width="1" stroke="black" />
<circle cx="98.13598265884396" cy="-27.510695163453967" r="6.0" fill="#C6C6C6ff" stroke-width="1" stroke="black" />
<circle cx="70.8130285305538" cy="-177.1016576381004" r="6.0" fill="#101010ff" stroke-width="1" stroke="black" />
<circle cx="174.3342403252552" cy="-113.80557157428343" r="6.0" fill="#636363ff" stroke-width="1" stroke="black" />
<circle cx="76.6589434778437" cy="-72.64494986282553" r="6.0" fill="#8B8B8Bff" stroke-width="1" stroke="black" />
<circle cx="108.89132401925801" cy="-91.66012103781034" r="6.0" fill="#7D7D7Dff" stroke-width="1" stroke="black" />
<circle cx="9.619077058474534" cy="-114.65413229918569" r="6.0" fill="#3D3D3Dff" stroke-width="1" stroke="black" />
<circle cx="33.12588692535705" cy="-42.992154923398765" r="6.0" fill="#959595ff" stroke-width="1" stroke="black" />
<circle cx="133.1850913438708" cy="-190.22912430440607" r="6.0" fill="#818181ff" stroke-width="1" stroke="black" />
<circle cx="61.29496602028548" cy="-22.234164151854642" r="6.0" fill="#2E2E2Eff" stroke-width="1" stroke="black" />
<circle cx="106.64165503580621" cy="-135.64509244591733" r="6.0" fill="#7F7F7Fff" stroke-width="1" stroke="black" />
<circle cx="100.51886504068082" cy="-124.12354202890484" r="6.0" fill="#A2A2A2ff" stroke-width="1" stroke="black" />
<circle cx="30.81363563963009" cy="-48.45114648773243" r="6.0" fill="#464646ff" stroke-width="1" stroke="black" />
<circle cx="95.89626373004985" cy="-155.38490922050318" r="6.0" fill="#4B4B4Bff" stroke-width="1" stroke="black" />
<circle cx="89.2906974529868" cy="-35.5203268735857" r="6.0" fill="#B9B9B9ff" stroke-width="1" stroke="black" />
</svg>